  <svg
    xmlns="http://www.w3.org/2000/svg"
    xmlns:xlink="http://www.w3.org/1999/xlink"
    style="
      margin: auto;
      background: #7aceff;
      display: block;
      z-index: 1;
      position: relative;
    "
    width="1920"
    height="1080"
    preserveAspectRatio="xMidYMid"
    viewBox="0 0 1920 979"
  >
    <g transform="translate(960,489.5) scale(1,1) translate(-960,-489.5)">
      <g transform="translate(-100 951.9375008112432) rotate(0)">
        <animateTransform
          attributeName="transform"
          type="translate"
          keyTimes="0;1"
          values="-100 951.9375008112432;1920 951.9375008112432"
          dur="500s"
          repeatCount="indefinite"
          begin="-104.39501947349284s"
        ></animateTransform>
        <path
          d="M84.717,33.597c0.791-2.503,1.186-5.138,1.186-7.773C85.903,11.594,74.308,0,60.079,0 c-9.881,0-18.445,5.534-22.793,13.702c-1.581-0.527-3.426-0.791-5.138-0.791c-9.486,0-17.128,7.642-17.128,17.128 c0,1.186,0.132,2.372,0.395,3.426C6.719,34.783,0,42.424,0,51.515C0,61.66,8.169,69.829,18.314,69.829h63.373 C91.831,69.829,100,61.66,100,51.515C99.868,42.556,93.281,35.046,84.717,33.597z"
          fill="#bddeff"
          transform="scale(0.55)"
        ></path>
      </g>
      <g transform="translate(-100 198.6666731129112) rotate(0)">
        <animateTransform
          attributeName="transform"
          type="translate"
          keyTimes="0;1"
          values="-100 198.6666731129112;1920 198.6666731129112"
          dur="500s"
          repeatCount="indefinite"
          begin="-59.96789891036924s"
        ></animateTransform>
        <path
          d="M84.717,33.597c0.791-2.503,1.186-5.138,1.186-7.773C85.903,11.594,74.308,0,60.079,0 c-9.881,0-18.445,5.534-22.793,13.702c-1.581-0.527-3.426-0.791-5.138-0.791c-9.486,0-17.128,7.642-17.128,17.128 c0,1.186,0.132,2.372,0.395,3.426C6.719,34.783,0,42.424,0,51.515C0,61.66,8.169,69.829,18.314,69.829h63.373 C91.831,69.829,100,61.66,100,51.515C99.868,42.556,93.281,35.046,84.717,33.597z"
          fill="#bddeff"
          transform="scale(0.55)"
        ></path>
      </g>
      <g transform="translate(-100 306.2563729329151) rotate(0)">
        <animateTransform
          attributeName="transform"
          type="translate"
          keyTimes="0;1"
          values="-100 306.2563729329151;1920 306.2563729329151"
          dur="500s"
          repeatCount="indefinite"
          begin="-161.77634897490879s"
        ></animateTransform>
        <path
          d="M84.717,33.597c0.791-2.503,1.186-5.138,1.186-7.773C85.903,11.594,74.308,0,60.079,0 c-9.881,0-18.445,5.534-22.793,13.702c-1.581-0.527-3.426-0.791-5.138-0.791c-9.486,0-17.128,7.642-17.128,17.128 c0,1.186,0.132,2.372,0.395,3.426C6.719,34.783,0,42.424,0,51.515C0,61.66,8.169,69.829,18.314,69.829h63.373 C91.831,69.829,100,61.66,100,51.515C99.868,42.556,93.281,35.046,84.717,33.597z"
          fill="#bddeff"
          transform="scale(0.55)"
        ></path>
      </g>
      <g transform="translate(-100 724.8596290506273) rotate(0)">
        <animateTransform
          attributeName="transform"
          type="translate"
          keyTimes="0;1"
          values="-100 724.8596290506273;1920 724.8596290506273"
          dur="500s"
          repeatCount="indefinite"
          begin="-215.52538164266687s"
        ></animateTransform>
        <path
          d="M84.717,33.597c0.791-2.503,1.186-5.138,1.186-7.773C85.903,11.594,74.308,0,60.079,0 c-9.881,0-18.445,5.534-22.793,13.702c-1.581-0.527-3.426-0.791-5.138-0.791c-9.486,0-17.128,7.642-17.128,17.128 c0,1.186,0.132,2.372,0.395,3.426C6.719,34.783,0,42.424,0,51.515C0,61.66,8.169,69.829,18.314,69.829h63.373 C91.831,69.829,100,61.66,100,51.515C99.868,42.556,93.281,35.046,84.717,33.597z"
          fill="#bddeff"
          transform="scale(0.55)"
        ></path>
      </g>
      <g transform="translate(-100 959.8432794599917) rotate(0)">
        <animateTransform
          attributeName="transform"
          type="translate"
          keyTimes="0;1"
          values="-100 959.8432794599917;1920 959.8432794599917"
          dur="500s"
          repeatCount="indefinite"
          begin="-431.6343047082242s"
        ></animateTransform>
        <path
          d="M84.717,33.597c0.791-2.503,1.186-5.138,1.186-7.773C85.903,11.594,74.308,0,60.079,0 c-9.881,0-18.445,5.534-22.793,13.702c-1.581-0.527-3.426-0.791-5.138-0.791c-9.486,0-17.128,7.642-17.128,17.128 c0,1.186,0.132,2.372,0.395,3.426C6.719,34.783,0,42.424,0,51.515C0,61.66,8.169,69.829,18.314,69.829h63.373 C91.831,69.829,100,61.66,100,51.515C99.868,42.556,93.281,35.046,84.717,33.597z"
          fill="#bddeff"
          transform="scale(0.55)"
        ></path>
      </g>
      <g transform="translate(-100 606.1725732533702) rotate(0)">
        <animateTransform
          attributeName="transform"
          type="translate"
          keyTimes="0;1"
          values="-100 606.1725732533702;1920 606.1725732533702"
          dur="500s"
          repeatCount="indefinite"
          begin="-336.9866858872683s"
        ></animateTransform>
        <path
          d="M84.717,33.597c0.791-2.503,1.186-5.138,1.186-7.773C85.903,11.594,74.308,0,60.079,0 c-9.881,0-18.445,5.534-22.793,13.702c-1.581-0.527-3.426-0.791-5.138-0.791c-9.486,0-17.128,7.642-17.128,17.128 c0,1.186,0.132,2.372,0.395,3.426C6.719,34.783,0,42.424,0,51.515C0,61.66,8.169,69.829,18.314,69.829h63.373 C91.831,69.829,100,61.66,100,51.515C99.868,42.556,93.281,35.046,84.717,33.597z"
          fill="#bddeff"
          transform="scale(0.55)"
        ></path>
      </g>
      <g transform="translate(-100 608.2122511786338) rotate(0)">
        <animateTransform
          attributeName="transform"
          type="translate"
          keyTimes="0;1"
          values="-100 608.2122511786338;1920 608.2122511786338"
          dur="250s"
          repeatCount="indefinite"
          begin="-490.5916042211156s"
        ></animateTransform>
        <path
          d="M84.717,33.597c0.791-2.503,1.186-5.138,1.186-7.773C85.903,11.594,74.308,0,60.079,0 c-9.881,0-18.445,5.534-22.793,13.702c-1.581-0.527-3.426-0.791-5.138-0.791c-9.486,0-17.128,7.642-17.128,17.128 c0,1.186,0.132,2.372,0.395,3.426C6.719,34.783,0,42.424,0,51.515C0,61.66,8.169,69.829,18.314,69.829h63.373 C91.831,69.829,100,61.66,100,51.515C99.868,42.556,93.281,35.046,84.717,33.597z"
          fill="#ffffff"
          transform="scale(0.7)"
        ></path>
      </g>
      <g transform="translate(-100 386.075066750666) rotate(0)">
        <animateTransform
          attributeName="transform"
          type="translate"
          keyTimes="0;1"
          values="-100 386.075066750666;1920 386.075066750666"
          dur="250s"
          repeatCount="indefinite"
          begin="-30.783020788089033s"
        ></animateTransform>
        <path
          d="M84.717,33.597c0.791-2.503,1.186-5.138,1.186-7.773C85.903,11.594,74.308,0,60.079,0 c-9.881,0-18.445,5.534-22.793,13.702c-1.581-0.527-3.426-0.791-5.138-0.791c-9.486,0-17.128,7.642-17.128,17.128 c0,1.186,0.132,2.372,0.395,3.426C6.719,34.783,0,42.424,0,51.515C0,61.66,8.169,69.829,18.314,69.829h63.373 C91.831,69.829,100,61.66,100,51.515C99.868,42.556,93.281,35.046,84.717,33.597z"
          fill="#ffffff"
          transform="scale(0.7)"
        ></path>
      </g>
      <g transform="translate(-100 327.16672392310784) rotate(0)">
        <animateTransform
          attributeName="transform"
          type="translate"
          keyTimes="0;1"
          values="-100 327.16672392310784;1920 327.16672392310784"
          dur="250s"
          repeatCount="indefinite"
          begin="-23.920115024641753s"
        ></animateTransform>
        <path
          d="M84.717,33.597c0.791-2.503,1.186-5.138,1.186-7.773C85.903,11.594,74.308,0,60.079,0 c-9.881,0-18.445,5.534-22.793,13.702c-1.581-0.527-3.426-0.791-5.138-0.791c-9.486,0-17.128,7.642-17.128,17.128 c0,1.186,0.132,2.372,0.395,3.426C6.719,34.783,0,42.424,0,51.515C0,61.66,8.169,69.829,18.314,69.829h63.373 C91.831,69.829,100,61.66,100,51.515C99.868,42.556,93.281,35.046,84.717,33.597z"
          fill="#ffffff"
          transform="scale(0.7)"
        ></path>
      </g>
      <g transform="translate(-100 635.4934371668093) rotate(0)">
        <animateTransform
          attributeName="transform"
          type="translate"
          keyTimes="0;1"
          values="-100 635.4934371668093;1920 635.4934371668093"
          dur="250s"
          repeatCount="indefinite"
          begin="-265.05921827989s"
        ></animateTransform>
        <path
          d="M84.717,33.597c0.791-2.503,1.186-5.138,1.186-7.773C85.903,11.594,74.308,0,60.079,0 c-9.881,0-18.445,5.534-22.793,13.702c-1.581-0.527-3.426-0.791-5.138-0.791c-9.486,0-17.128,7.642-17.128,17.128 c0,1.186,0.132,2.372,0.395,3.426C6.719,34.783,0,42.424,0,51.515C0,61.66,8.169,69.829,18.314,69.829h63.373 C91.831,69.829,100,61.66,100,51.515C99.868,42.556,93.281,35.046,84.717,33.597z"
          fill="#ffffff"
          transform="scale(0.7)"
        ></path>
      </g>
      <g transform="translate(-100 884.0995844442994) rotate(0)">
        <animateTransform
          attributeName="transform"
          type="translate"
          keyTimes="0;1"
          values="-100 884.0995844442994;1920 884.0995844442994"
          dur="250s"
          repeatCount="indefinite"
          begin="-87.96396787815497s"
        ></animateTransform>
        <path
          d="M84.717,33.597c0.791-2.503,1.186-5.138,1.186-7.773C85.903,11.594,74.308,0,60.079,0 c-9.881,0-18.445,5.534-22.793,13.702c-1.581-0.527-3.426-0.791-5.138-0.791c-9.486,0-17.128,7.642-17.128,17.128 c0,1.186,0.132,2.372,0.395,3.426C6.719,34.783,0,42.424,0,51.515C0,61.66,8.169,69.829,18.314,69.829h63.373 C91.831,69.829,100,61.66,100,51.515C99.868,42.556,93.281,35.046,84.717,33.597z"
          fill="#ffffff"
          transform="scale(0.7)"
        ></path>
      </g>
      <g transform="translate(-100 733.9887339170724) rotate(0)">
        <animateTransform
          attributeName="transform"
          type="translate"
          keyTimes="0;1"
          values="-100 733.9887339170724;1920 733.9887339170724"
          dur="250s"
          repeatCount="indefinite"
          begin="-89.93594034119634s"
        ></animateTransform>
        <path
          d="M84.717,33.597c0.791-2.503,1.186-5.138,1.186-7.773C85.903,11.594,74.308,0,60.079,0 c-9.881,0-18.445,5.534-22.793,13.702c-1.581-0.527-3.426-0.791-5.138-0.791c-9.486,0-17.128,7.642-17.128,17.128 c0,1.186,0.132,2.372,0.395,3.426C6.719,34.783,0,42.424,0,51.515C0,61.66,8.169,69.829,18.314,69.829h63.373 C91.831,69.829,100,61.66,100,51.515C99.868,42.556,93.281,35.046,84.717,33.597z"
          fill="#ffffff"
          transform="scale(0.7)"
        ></path>
      </g>
      <g transform="translate(-100 948.5425627626048) rotate(0)">
        <animateTransform
          attributeName="transform"
          type="translate"
          keyTimes="0;1"
          values="-100 948.5425627626048;1920 948.5425627626048"
          dur="166.66666666666666s"
          repeatCount="indefinite"
          begin="-391.3345542346891s"
        ></animateTransform>
        <path
          d="M84.717,33.597c0.791-2.503,1.186-5.138,1.186-7.773C85.903,11.594,74.308,0,60.079,0 c-9.881,0-18.445,5.534-22.793,13.702c-1.581-0.527-3.426-0.791-5.138-0.791c-9.486,0-17.128,7.642-17.128,17.128 c0,1.186,0.132,2.372,0.395,3.426C6.719,34.783,0,42.424,0,51.515C0,61.66,8.169,69.829,18.314,69.829h63.373 C91.831,69.829,100,61.66,100,51.515C99.868,42.556,93.281,35.046,84.717,33.597z"
          fill="#f1f2f3"
          transform="scale(0.85)"
        ></path>
      </g>
      <g transform="translate(-100 628.3401270257668) rotate(0)">
        <animateTransform
          attributeName="transform"
          type="translate"
          keyTimes="0;1"
          values="-100 628.3401270257668;1920 628.3401270257668"
          dur="166.66666666666666s"
          repeatCount="indefinite"
          begin="-214.04400107403143s"
        ></animateTransform>
        <path
          d="M84.717,33.597c0.791-2.503,1.186-5.138,1.186-7.773C85.903,11.594,74.308,0,60.079,0 c-9.881,0-18.445,5.534-22.793,13.702c-1.581-0.527-3.426-0.791-5.138-0.791c-9.486,0-17.128,7.642-17.128,17.128 c0,1.186,0.132,2.372,0.395,3.426C6.719,34.783,0,42.424,0,51.515C0,61.66,8.169,69.829,18.314,69.829h63.373 C91.831,69.829,100,61.66,100,51.515C99.868,42.556,93.281,35.046,84.717,33.597z"
          fill="#f1f2f3"
          transform="scale(0.85)"
        ></path>
      </g>
      <g transform="translate(-100 838.7102800642604) rotate(0)">
        <animateTransform
          attributeName="transform"
          type="translate"
          keyTimes="0;1"
          values="-100 838.7102800642604;1920 838.7102800642604"
          dur="166.66666666666666s"
          repeatCount="indefinite"
          begin="-210.51738742758363s"
        ></animateTransform>
        <path
          d="M84.717,33.597c0.791-2.503,1.186-5.138,1.186-7.773C85.903,11.594,74.308,0,60.079,0 c-9.881,0-18.445,5.534-22.793,13.702c-1.581-0.527-3.426-0.791-5.138-0.791c-9.486,0-17.128,7.642-17.128,17.128 c0,1.186,0.132,2.372,0.395,3.426C6.719,34.783,0,42.424,0,51.515C0,61.66,8.169,69.829,18.314,69.829h63.373 C91.831,69.829,100,61.66,100,51.515C99.868,42.556,93.281,35.046,84.717,33.597z"
          fill="#f1f2f3"
          transform="scale(0.85)"
        ></path>
      </g>
      <g transform="translate(-100 177.88350944918645) rotate(0)">
        <animateTransform
          attributeName="transform"
          type="translate"
          keyTimes="0;1"
          values="-100 177.88350944918645;1920 177.88350944918645"
          dur="166.66666666666666s"
          repeatCount="indefinite"
          begin="-160.02379336828687s"
        ></animateTransform>
        <path
          d="M84.717,33.597c0.791-2.503,1.186-5.138,1.186-7.773C85.903,11.594,74.308,0,60.079,0 c-9.881,0-18.445,5.534-22.793,13.702c-1.581-0.527-3.426-0.791-5.138-0.791c-9.486,0-17.128,7.642-17.128,17.128 c0,1.186,0.132,2.372,0.395,3.426C6.719,34.783,0,42.424,0,51.515C0,61.66,8.169,69.829,18.314,69.829h63.373 C91.831,69.829,100,61.66,100,51.515C99.868,42.556,93.281,35.046,84.717,33.597z"
          fill="#f1f2f3"
          transform="scale(0.85)"
        ></path>
      </g>
      <g transform="translate(-100 748.109480329259) rotate(0)">
        <animateTransform
          attributeName="transform"
          type="translate"
          keyTimes="0;1"
          values="-100 748.109480329259;1920 748.109480329259"
          dur="166.66666666666666s"
          repeatCount="indefinite"
          begin="-137.5682763651206s"
        ></animateTransform>
        <path
          d="M84.717,33.597c0.791-2.503,1.186-5.138,1.186-7.773C85.903,11.594,74.308,0,60.079,0 c-9.881,0-18.445,5.534-22.793,13.702c-1.581-0.527-3.426-0.791-5.138-0.791c-9.486,0-17.128,7.642-17.128,17.128 c0,1.186,0.132,2.372,0.395,3.426C6.719,34.783,0,42.424,0,51.515C0,61.66,8.169,69.829,18.314,69.829h63.373 C91.831,69.829,100,61.66,100,51.515C99.868,42.556,93.281,35.046,84.717,33.597z"
          fill="#f1f2f3"
          transform="scale(0.85)"
        ></path>
      </g>
      <g transform="translate(-100 908.5009726916708) rotate(0)">
        <animateTransform
          attributeName="transform"
          type="translate"
          keyTimes="0;1"
          values="-100 908.5009726916708;1920 908.5009726916708"
          dur="166.66666666666666s"
          repeatCount="indefinite"
          begin="-138.6578922960694s"
        ></animateTransform>
        <path
          d="M84.717,33.597c0.791-2.503,1.186-5.138,1.186-7.773C85.903,11.594,74.308,0,60.079,0 c-9.881,0-18.445,5.534-22.793,13.702c-1.581-0.527-3.426-0.791-5.138-0.791c-9.486,0-17.128,7.642-17.128,17.128 c0,1.186,0.132,2.372,0.395,3.426C6.719,34.783,0,42.424,0,51.515C0,61.66,8.169,69.829,18.314,69.829h63.373 C91.831,69.829,100,61.66,100,51.515C99.868,42.556,93.281,35.046,84.717,33.597z"
          fill="#f1f2f3"
          transform="scale(0.85)"
        ></path>
      </g>
      <g transform="translate(-100 913.4966066808051) rotate(0)">
        <animateTransform
          attributeName="transform"
          type="translate"
          keyTimes="0;1"
          values="-100 913.4966066808051;1920 913.4966066808051"
          dur="125s"
          repeatCount="indefinite"
          begin="-407.94050147070817s"
        ></animateTransform>
        <path
          d="M84.717,33.597c0.791-2.503,1.186-5.138,1.186-7.773C85.903,11.594,74.308,0,60.079,0 c-9.881,0-18.445,5.534-22.793,13.702c-1.581-0.527-3.426-0.791-5.138-0.791c-9.486,0-17.128,7.642-17.128,17.128 c0,1.186,0.132,2.372,0.395,3.426C6.719,34.783,0,42.424,0,51.515C0,61.66,8.169,69.829,18.314,69.829h63.373 C91.831,69.829,100,61.66,100,51.515C99.868,42.556,93.281,35.046,84.717,33.597z"
          fill="#bddeff"
          transform="scale(1)"
        ></path>
      </g>
      <g transform="translate(-100 426.98674253311947) rotate(0)">
        <animateTransform
          attributeName="transform"
          type="translate"
          keyTimes="0;1"
          values="-100 426.98674253311947;1920 426.98674253311947"
          dur="125s"
          repeatCount="indefinite"
          begin="-276.7593737764612s"
        ></animateTransform>
        <path
          d="M84.717,33.597c0.791-2.503,1.186-5.138,1.186-7.773C85.903,11.594,74.308,0,60.079,0 c-9.881,0-18.445,5.534-22.793,13.702c-1.581-0.527-3.426-0.791-5.138-0.791c-9.486,0-17.128,7.642-17.128,17.128 c0,1.186,0.132,2.372,0.395,3.426C6.719,34.783,0,42.424,0,51.515C0,61.66,8.169,69.829,18.314,69.829h63.373 C91.831,69.829,100,61.66,100,51.515C99.868,42.556,93.281,35.046,84.717,33.597z"
          fill="#bddeff"
          transform="scale(1)"
        ></path>
      </g>
      <g transform="translate(-100 716.5964972744724) rotate(0)">
        <animateTransform
          attributeName="transform"
          type="translate"
          keyTimes="0;1"
          values="-100 716.5964972744724;1920 716.5964972744724"
          dur="125s"
          repeatCount="indefinite"
          begin="-216.7976134903532s"
        ></animateTransform>
        <path
          d="M84.717,33.597c0.791-2.503,1.186-5.138,1.186-7.773C85.903,11.594,74.308,0,60.079,0 c-9.881,0-18.445,5.534-22.793,13.702c-1.581-0.527-3.426-0.791-5.138-0.791c-9.486,0-17.128,7.642-17.128,17.128 c0,1.186,0.132,2.372,0.395,3.426C6.719,34.783,0,42.424,0,51.515C0,61.66,8.169,69.829,18.314,69.829h63.373 C91.831,69.829,100,61.66,100,51.515C99.868,42.556,93.281,35.046,84.717,33.597z"
          fill="#bddeff"
          transform="scale(1)"
        ></path>
      </g>
      <g transform="translate(-100 954.2879428394211) rotate(0)">
        <animateTransform
          attributeName="transform"
          type="translate"
          keyTimes="0;1"
          values="-100 954.2879428394211;1920 954.2879428394211"
          dur="125s"
          repeatCount="indefinite"
          begin="-354.2749205832246s"
        ></animateTransform>
        <path
          d="M84.717,33.597c0.791-2.503,1.186-5.138,1.186-7.773C85.903,11.594,74.308,0,60.079,0 c-9.881,0-18.445,5.534-22.793,13.702c-1.581-0.527-3.426-0.791-5.138-0.791c-9.486,0-17.128,7.642-17.128,17.128 c0,1.186,0.132,2.372,0.395,3.426C6.719,34.783,0,42.424,0,51.515C0,61.66,8.169,69.829,18.314,69.829h63.373 C91.831,69.829,100,61.66,100,51.515C99.868,42.556,93.281,35.046,84.717,33.597z"
          fill="#bddeff"
          transform="scale(1)"
        ></path>
      </g>
      <g transform="translate(-100 259.4376942924167) rotate(0)">
        <animateTransform
          attributeName="transform"
          type="translate"
          keyTimes="0;1"
          values="-100 259.4376942924167;1920 259.4376942924167"
          dur="125s"
          repeatCount="indefinite"
          begin="-21.350517019153582s"
        ></animateTransform>
        <path
          d="M84.717,33.597c0.791-2.503,1.186-5.138,1.186-7.773C85.903,11.594,74.308,0,60.079,0 c-9.881,0-18.445,5.534-22.793,13.702c-1.581-0.527-3.426-0.791-5.138-0.791c-9.486,0-17.128,7.642-17.128,17.128 c0,1.186,0.132,2.372,0.395,3.426C6.719,34.783,0,42.424,0,51.515C0,61.66,8.169,69.829,18.314,69.829h63.373 C91.831,69.829,100,61.66,100,51.515C99.868,42.556,93.281,35.046,84.717,33.597z"
          fill="#bddeff"
          transform="scale(1)"
        ></path>
      </g>
      <g transform="translate(-100 40.53323015008977) rotate(0)">
        <animateTransform
          attributeName="transform"
          type="translate"
          keyTimes="0;1"
          values="-100 40.53323015008977;1920 40.53323015008977"
          dur="125s"
          repeatCount="indefinite"
          begin="-483.4368961765402s"
        ></animateTransform>
        <path
          d="M84.717,33.597c0.791-2.503,1.186-5.138,1.186-7.773C85.903,11.594,74.308,0,60.079,0 c-9.881,0-18.445,5.534-22.793,13.702c-1.581-0.527-3.426-0.791-5.138-0.791c-9.486,0-17.128,7.642-17.128,17.128 c0,1.186,0.132,2.372,0.395,3.426C6.719,34.783,0,42.424,0,51.515C0,61.66,8.169,69.829,18.314,69.829h63.373 C91.831,69.829,100,61.66,100,51.515C99.868,42.556,93.281,35.046,84.717,33.597z"
          fill="#bddeff"
          transform="scale(1)"
        ></path>
      </g>
      <g transform="translate(-100 242.48134172904741) rotate(0)">
        <animateTransform
          attributeName="transform"
          type="translate"
          keyTimes="0;1"
          values="-100 242.48134172904741;1920 242.48134172904741"
          dur="125s"
          repeatCount="indefinite"
          begin="-328.1079630429899s"
        ></animateTransform>
        <path
          d="M84.717,33.597c0.791-2.503,1.186-5.138,1.186-7.773C85.903,11.594,74.308,0,60.079,0 c-9.881,0-18.445,5.534-22.793,13.702c-1.581-0.527-3.426-0.791-5.138-0.791c-9.486,0-17.128,7.642-17.128,17.128 c0,1.186,0.132,2.372,0.395,3.426C6.719,34.783,0,42.424,0,51.515C0,61.66,8.169,69.829,18.314,69.829h63.373 C91.831,69.829,100,61.66,100,51.515C99.868,42.556,93.281,35.046,84.717,33.597z"
          fill="#bddeff"
          transform="scale(1)"
        ></path>
      </g>
    </g>
  </svg>