<svg width="392" height="298" viewBox="0 0 392 298" fill="none" xmlns="http://www.w3.org/2000/svg">
<path d="M288 298H-110V208H288V298Z" fill="#FEF7E2"/>
<path d="M-126.711 164C-126.711 211.889 -87.889 250.711 -40 250.711C7.88899 250.711 46.7106 211.889 46.7106 164C46.7106 116.111 7.88899 77.2895 -40 77.2895C-87.889 77.2895 -126.711 116.111 -126.711 164Z" fill="#FEF7E2"/>
<path d="M-20.5032 149.497C-20.5032 231.512 45.9836 298 128 298C210.016 298 276.503 231.512 276.503 149.497C276.503 67.4804 210.016 0.993713 128 0.993713C45.9836 0.993713 -20.5032 67.4804 -20.5032 149.497Z" fill="#FEF7E2"/>
<path d="M176.522 190.522C176.522 249.881 224.641 298 284 298C343.359 298 391.478 249.881 391.478 190.522C391.478 131.164 343.359 83.0448 284 83.0448C224.641 83.0448 176.522 131.164 176.522 190.522Z" fill="#FEF7E2"/>
</svg>
