<svg width="1440" height="350" viewBox="0 0 1440 350" fill="none" xmlns="http://www.w3.org/2000/svg">
<g clip-path="url(#clip0_46_135)">
<path d="M1452.57 338.251C1450.65 337.277 1448.62 336.546 1446.51 336.075C1441.39 334.879 1436.41 333.098 1431.2 332.26C1426.72 331.54 1421.79 332.694 1417.36 331.851C1412.71 330.969 1407.49 330.309 1402.93 329.25C1397.55 328.006 1392.99 325.881 1387.52 324.785C1383.27 323.933 1378.33 323.18 1374.35 320.725C1371.56 319.002 1367.44 316.008 1366.02 312.971C1364.54 309.81 1366.47 306.137 1361.19 308.239C1360.32 308.611 1359.39 308.795 1358.44 308.778C1357.5 308.761 1356.57 308.543 1355.71 308.14C1355.01 307.76 1354.23 307.559 1353.43 307.555C1352 307.64 1351.99 307.646 1352.46 306.287C1352.57 305.975 1352.8 305.649 1352.52 305.356C1352.26 305.079 1351.89 305.227 1351.57 305.296C1351.14 305.389 1350.76 305.708 1350.2 305.6C1350.29 305.221 1350.37 304.868 1350.47 304.523C1350.64 303.954 1350.87 303.317 1350.3 302.911C1350.04 302.776 1349.75 302.713 1349.46 302.728C1349.16 302.743 1348.88 302.835 1348.63 302.996C1347.71 303.487 1346.9 304.175 1346.27 305.012C1345.91 305.417 1345.55 305.847 1344.91 305.723C1343.82 305.513 1341.95 303.682 1341.79 302.601C1341.78 302.224 1341.65 301.862 1341.41 301.565C1341.18 301.267 1340.86 301.05 1340.5 300.942C1340.07 300.853 1339.67 300.645 1339.34 300.341C1339.02 300.037 1338.78 299.649 1338.67 299.22C1338.57 298.662 1338.3 298.147 1337.9 297.749C1337.5 297.35 1336.98 297.088 1336.42 296.999C1336.18 296.933 1335.95 296.809 1335.71 296.749C1334.88 296.54 1334.98 295.602 1334.48 295.102C1334.32 294.939 1335.11 294.583 1335.46 294.303C1335.86 293.978 1336.41 293.793 1336.57 293.08C1336.17 293.186 1335.75 293.152 1335.37 292.983C1335 292.813 1334.69 292.52 1334.51 292.151C1334.02 291.374 1332.72 291.43 1331.74 291.219C1331.19 291.1 1330.47 291.237 1330.15 290.676C1329.69 289.873 1329.18 289.968 1328.48 290.261C1327.88 290.513 1327.16 290.862 1326.99 289.734C1326.96 289.573 1326.72 289.42 1326.55 289.313C1325.07 288.391 1323.87 288.981 1323.72 290.702C1323.6 292.006 1323.13 292.448 1322.2 291.85C1320.38 290.661 1318.27 290.011 1316.09 289.974C1315.73 289.965 1315.18 289.936 1315.06 289.443C1314.59 287.564 1313.51 285.95 1312.75 284.204C1311.72 281.804 1310.27 279.609 1309.31 277.15C1308.56 275.138 1307.28 273.369 1305.59 272.036C1305.47 271.956 1305.38 271.845 1305.32 271.715C1305.25 271.585 1305.23 271.44 1305.24 271.296C1305.34 269.239 1304.45 267.496 1303.49 265.769C1303.02 265.028 1302.66 264.223 1302.42 263.38C1301.93 261.26 1301.39 259.195 1299.73 257.587C1298.91 256.789 1299.06 255.868 1299.98 255.106C1301.04 254.198 1301.73 252.931 1301.91 251.548C1302.24 249.232 1302.33 246.885 1302.16 244.55C1302.15 243.228 1301.81 241.93 1301.17 240.776C1300.52 239.622 1299.59 238.649 1298.47 237.948C1298.3 237.835 1298 237.693 1298 237.568C1298.03 236.202 1296.8 235.429 1296.48 234.237C1296.11 232.918 1295.35 232.745 1294.23 233.45C1293.61 233.848 1293.19 233.802 1292.87 232.918C1292.73 232.462 1292.47 232.051 1292.11 231.731C1291.76 231.41 1291.33 231.191 1290.86 231.096C1289.74 231.029 1288.63 230.861 1287.55 230.596C1287.35 230.527 1287.13 230.51 1286.92 230.546C1286.71 230.582 1286.51 230.67 1286.35 230.802C1286.18 230.933 1286.05 231.105 1285.96 231.3C1285.88 231.496 1285.85 231.709 1285.86 231.921C1285.98 233.216 1285.32 232.852 1284.69 232.577C1283.93 232.129 1283.04 231.954 1282.16 232.081C1281.13 232.253 1280.08 232.187 1279.08 231.889C1278.55 231.769 1278.01 231.706 1277.47 231.701C1276.73 231.713 1276.07 231.884 1275.47 231.121C1275.14 230.694 1274.36 230.775 1273.71 230.78C1272.53 230.791 1271.65 231.879 1270.39 231.532C1268.38 231.107 1266.41 230.497 1264.51 229.71C1264.2 229.558 1263.54 229.235 1263.73 229.067C1264.43 228.416 1263.32 227.202 1264.52 226.789C1264.77 226.703 1265.16 226.666 1265.09 226.257C1265.03 225.926 1264.69 225.852 1264.42 225.771C1263.69 225.585 1262.93 225.512 1262.18 225.555C1261.68 225.563 1261.13 225.451 1260.89 226.054C1260.69 226.586 1261.14 226.89 1261.43 227.224C1261.62 227.444 1261.9 227.604 1262.03 227.851C1262.26 228.306 1262.21 228.892 1261.68 228.965C1260.51 229.23 1259.29 229.284 1258.1 229.125C1256.54 228.835 1254.96 228.715 1253.38 228.767C1252 228.748 1250.62 228.777 1249.25 228.72C1247.69 228.701 1246.19 228.144 1244.99 227.142C1244.31 226.555 1243.71 225.738 1242.78 225.548C1240.19 225.016 1237.12 225.614 1235.83 228.6C1235.31 229.734 1234.97 230.946 1234.83 232.188C1234.76 232.995 1234.88 233.912 1234.2 234.542C1232.19 236.397 1231.2 238.821 1230.36 241.332C1230.06 242.421 1229.55 243.44 1228.86 244.333C1228.21 245.054 1227.82 245.966 1227.74 246.93C1227.6 247.967 1227.21 248.956 1226.61 249.815C1225.56 251.436 1224.97 253.309 1224.9 255.238C1224.88 256.742 1224.9 258.248 1224.84 259.752C1224.66 261.467 1225.05 263.195 1225.94 264.67C1226.17 265.117 1226.31 265.602 1226.35 266.1C1226.5 266.871 1226.28 267.239 1225.39 267.433C1224.84 267.608 1224.26 267.65 1223.69 267.555C1223.13 267.46 1222.6 267.231 1222.14 266.887C1221.95 266.716 1221.71 266.609 1221.45 266.582C1221.2 266.555 1220.94 266.608 1220.72 266.735C1219.38 267.934 1217.64 268.266 1216.15 269.084C1215.15 269.636 1214.45 269.784 1213.57 269.111C1213.28 268.844 1212.9 268.692 1212.51 268.68C1212.11 268.668 1211.73 268.799 1211.42 269.048C1210.92 269.396 1210.33 269.607 1209.72 269.659C1209.11 269.711 1208.5 269.602 1207.95 269.344C1207.51 269.14 1207 269.285 1206.61 269.13C1205.32 268.654 1203.98 268.34 1202.61 268.196C1201.6 268.052 1201.12 268.036 1200.62 268.828C1200.34 269.249 1200.06 269.663 1199.78 270.075C1199.34 270.727 1198.87 270.91 1198.29 270.213C1197.58 269.349 1196.92 269.626 1196.34 270.371C1195.96 270.863 1195.61 271.383 1195.3 271.928C1195.18 272.194 1194.99 272.423 1194.75 272.594C1194.51 272.766 1194.24 272.873 1193.94 272.907C1193.32 272.987 1192.72 273.203 1192.19 273.539C1191.65 273.874 1191.2 274.321 1190.86 274.85C1190.26 275.668 1189.77 276.027 1188.86 275.213C1188.31 274.718 1187.7 274.566 1187.15 275.508C1187.07 275.714 1186.94 275.899 1186.77 276.047C1186.61 276.195 1186.41 276.303 1186.2 276.362C1185.98 276.421 1185.76 276.429 1185.54 276.386C1185.32 276.344 1185.12 276.251 1184.94 276.116C1184.8 276.041 1184.64 276.021 1184.48 276.059C1183.35 276.314 1181.38 278.503 1181.23 279.677C1181.17 280.133 1181.08 280.601 1180.51 280.453C1179.08 280.078 1178.28 281.039 1177.41 281.852C1176.93 282.308 1176.5 282.991 1175.8 282.92C1174.35 282.777 1173.23 283.432 1172.08 284.114C1171.39 284.524 1170.11 284.45 1169.93 284.839C1169.32 286.117 1168.5 285.651 1167.63 285.502C1167.22 285.414 1166.79 285.474 1166.42 285.674C1165.63 286.122 1165.3 285.804 1165.14 284.999C1165.04 284.481 1164.96 283.87 1164.45 283.574C1163.04 282.766 1161.52 283.053 1160.05 283.33C1159.09 283.511 1159.05 284.447 1158.83 285.198C1158.73 285.514 1158.7 285.924 1158.48 286.113C1157.15 287.273 1157.38 289.127 1156.48 290.476C1156.25 290.828 1156.38 291.539 1155.82 291.539C1155.35 291.535 1155.21 290.931 1155.02 290.51C1154.83 290.075 1154.71 289.743 1154.05 289.599C1152.51 289.258 1150.75 290.415 1149.39 288.87C1148.45 288.772 1147.49 288.765 1146.55 288.848C1145.68 289.316 1146.26 289.303 1145.7 290.017C1145.01 290.886 1145.44 291.207 1144.22 291.892C1143.09 292.518 1141.58 292.61 1140.36 292.989C1140.23 293.028 1140.11 293.069 1139.99 293.112C1137.9 293.883 1137.41 295.211 1135.73 296.764C1133.83 298.52 1131.32 299.591 1129.29 301.38C1126.49 303.933 1123.44 306.198 1120.19 308.138C1117.43 309.717 1115.54 312.984 1112.36 313.467C1109.13 313.957 1106.77 313.271 1103.68 314.637C1099.09 316.67 1094.94 319.471 1090.17 321.068C1087.25 321.932 1084.29 322.622 1081.3 323.133C1077.56 323.906 1073.73 324.64 1069.95 325.512C1069.89 324.117 1070.43 322.89 1072.31 322.023C1070.67 322.175 1069.64 321.014 1068.32 320.621C1067.62 320.415 1067.52 319.706 1068.31 319.525C1070.14 319.105 1071.77 317.918 1073.76 318.104C1074.85 318.205 1075.95 318.221 1077.04 318.275C1076.59 317.976 1076.07 317.79 1075.53 317.732C1073.54 317.488 1071.51 317.644 1069.58 318.193C1069.11 318.312 1068.39 318.515 1068.41 317.843C1068.44 316.6 1068.2 315.109 1069.57 314.363C1070.43 313.896 1070.37 313.559 1069.65 313.177C1068.68 312.658 1068.64 311.949 1068.93 311C1069.25 309.937 1070.05 310.013 1070.87 309.965C1072.82 309.846 1074.73 310.284 1076.66 310.381C1074.8 309.628 1072.81 309.248 1070.8 309.26C1070.22 309.26 1069.37 309.519 1069.46 308.398C1069.49 308.085 1069.59 307.667 1069.19 307.572C1068.68 307.451 1068.56 307.929 1068.49 308.281C1068.3 309.134 1067.67 309.379 1066.95 309.496C1064.75 309.77 1062.59 310.272 1060.49 310.994C1059.97 311.193 1059.23 311.019 1059.37 310.53C1059.72 309.264 1059.05 307.921 1059.98 306.657C1060.63 305.771 1061.45 304.515 1060.86 303.354C1060.21 302.094 1060.47 300.973 1060.72 299.77C1060.92 298.762 1061.15 297.757 1061.33 296.745C1061.42 296.273 1061.54 295.662 1060.88 295.545C1060.35 295.451 1060.2 295.991 1060.09 296.411C1060 296.722 1059.98 297.053 1059.91 297.369C1059.39 299.498 1059.32 301.792 1057.47 303.411C1057.26 303.629 1057.11 303.909 1057.07 304.212C1057.02 304.514 1057.07 304.824 1057.21 305.097C1057.58 305.871 1057.37 306.284 1056.64 306.619C1055.14 307.303 1054.36 308.745 1053.25 309.848C1053.12 309.984 1053.01 310.146 1052.93 310.325C1052.86 310.504 1052.82 310.696 1052.82 310.89C1052.81 311.084 1052.85 311.276 1052.93 311.456C1053 311.635 1053.11 311.799 1053.25 311.936C1054.37 313.218 1053.96 313.948 1052.57 314.601C1052.08 314.837 1050.98 315.063 1051.38 315.776C1051.75 316.421 1052.34 315.477 1052.84 315.273C1053.27 315.098 1053.68 314.582 1054.15 315.011C1054.52 315.487 1054.7 316.084 1054.66 316.687C1054.73 317.38 1054.1 317.375 1053.65 317.49C1052.57 317.764 1051.43 317.764 1050.42 318.417C1049.86 316.442 1050.07 314.456 1049.72 312.537C1049.58 311.513 1049.21 310.533 1048.64 309.671C1048.07 308.809 1047.31 308.088 1046.42 307.561C1045.91 307.264 1045.36 306.801 1044.77 307.064C1044.09 307.372 1044.38 308.12 1044.38 308.674C1044.35 312.85 1044.36 317.026 1044.37 321.199C1044.37 322.395 1044.16 323.628 1045.16 324.805C1043.96 324.77 1042.71 325.336 1042.53 323.801C1042.23 321.163 1043.48 318.436 1042.1 315.846C1043.09 314.352 1042.45 312.752 1042.47 311.179C1042.49 309.448 1042.82 307.686 1042.47 305.995C1042 303.704 1041.87 303.731 1043.58 302.336C1043.54 302.616 1043.52 302.9 1043.52 303.183C1043.61 304.009 1043.35 305.4 1044.18 305.431C1045.14 305.466 1044.93 304.057 1045 303.278C1045.19 301.228 1044.96 299.119 1045.37 297.128C1045.72 295.406 1045.96 294.174 1043.77 293.863C1043.54 293.831 1043.35 293.539 1043.15 293.368C1043.91 293.555 1044.79 294.06 1045.19 292.904C1046.03 290.497 1043.67 287.223 1041.14 287.216C1040.11 287.216 1039.09 287.216 1038.06 287.216C1034.98 287.216 1034.13 287.798 1033.45 290.737C1033.25 291.598 1032.6 292.766 1033.68 293.421C1034.82 294.122 1035.35 292.889 1036.04 292.286C1036.42 291.904 1036.83 291.546 1037.26 291.217C1038.62 290.311 1039.96 290.197 1041.22 291.428C1040.34 290.983 1039.32 290.874 1038.37 291.122C1037.41 291.371 1036.57 291.959 1036.02 292.777C1035.5 293.493 1034.74 293.986 1033.87 294.156C1033.67 294.154 1033.46 294.206 1033.28 294.306C1033.1 294.407 1032.95 294.554 1032.84 294.731C1032.73 294.909 1032.67 295.111 1032.67 295.318C1032.66 295.526 1032.71 295.731 1032.81 295.914C1033.4 297.765 1033.24 299.668 1033.33 301.557C1033.39 302.689 1033.57 303.817 1033.73 304.94C1033.78 305.23 1033.9 305.617 1034.33 305.548C1034.65 305.495 1034.73 305.188 1034.75 304.921C1034.83 304.054 1034.88 303.186 1034.95 302.192C1037.12 304.583 1037.18 305.11 1035.12 306.192C1033.45 307.067 1031.72 307.795 1030.11 308.815C1028.68 309.715 1028.1 309.213 1027.58 307.623C1027.1 306.158 1027.55 304.407 1026.19 303.198C1025.86 302.894 1026.03 302.376 1026.2 301.963C1026.34 301.506 1026.34 301.015 1026.18 300.561C1025.54 297.444 1025.12 294.306 1025.8 291.128C1026.41 288.297 1026.4 288.303 1029.1 288.712C1029.6 288.788 1030.29 289.121 1030.54 288.454C1030.79 287.788 1030.06 287.569 1029.64 287.281C1025.94 284.725 1022.23 282.183 1018.51 279.653C1017.51 278.997 1016.65 278.159 1015.97 277.184C1013.09 273.044 1010.16 268.939 1007.25 264.822C1005.72 262.66 1003.63 260.762 1003.95 257.733C1003.97 257.56 1003.79 257.365 1003.67 257.105C1002.85 258.465 1003.46 260.051 1002.77 261.25C1002.08 262.449 1001.01 263.432 1000.2 264.573C997.611 268.188 994.888 271.724 992.562 275.502C990.764 278.424 988.082 280.134 985.409 281.96C984.965 282.264 984.505 282.535 984.319 281.744C984.044 280.575 983.146 280.648 982.269 280.648C966.271 280.648 950.275 280.648 934.28 280.648C932.507 280.648 931.525 281.804 931.705 283.892C931.839 285.438 933.183 284.687 934.015 284.879C934.338 284.919 934.665 284.923 934.989 284.891C943.172 284.854 951.356 284.728 959.539 284.809C965.773 284.87 972.006 284.905 978.24 284.826C980.307 284.8 982.374 284.822 984.441 284.822C984.441 284.999 984.442 285.177 984.445 285.353C983.809 285.574 983.13 285.637 982.465 285.536C966.415 285.545 950.364 285.52 934.314 285.565C931.791 285.572 929.334 285.671 927.386 283.667C927.063 283.374 926.671 283.166 926.247 283.064C925.336 282.878 924.495 282.442 923.817 281.806C923.139 281.169 922.651 280.357 922.407 279.46C922.06 278.278 922.18 276.718 923.058 276.545C924.197 276.321 924.607 275.861 924.052 274.768C923.921 274.51 923.846 274.208 924.065 274.008C925.31 272.883 924.998 272.095 923.577 271.492C923.506 271.454 923.446 271.401 923.399 271.336C923.353 271.271 923.322 271.196 923.309 271.117C923.209 268.891 922.309 266.81 922.028 264.654C921.709 262.19 921.259 259.706 920.709 257.342C920.293 255.546 919.955 253.638 919.465 251.826C918.469 248.495 917.945 245.041 917.909 241.564C917.914 241.218 917.958 240.685 917.396 240.76C917.021 240.809 917.061 241.253 917.064 241.575C917.107 246.025 915.541 250.22 915.003 254.576C914.754 256.593 913.758 258.419 913.74 260.531C913.733 261.286 913.795 262.497 913.379 262.978C912.544 263.94 912.937 265.074 912.549 266.084C911.764 268.13 912.312 270.64 910.304 272.329C909.838 272.721 910.1 273.367 910.626 273.712C911.045 273.986 911.295 274.279 911.011 274.771C910.389 275.848 910.772 276.386 911.927 276.545C912.061 276.565 912.187 276.62 912.294 276.703C912.4 276.787 912.483 276.896 912.535 277.021C913.171 278.281 911.887 281.779 910.56 282.261C905.852 283.956 902.822 286.993 902.017 292.145C901.55 295.133 900.645 298.053 899.923 301C899.402 303.126 899.407 303.152 901.67 303.154C906.821 303.16 911.973 303.16 917.124 303.154H923.644V303.427H921.857C914.428 303.427 906.999 303.427 899.571 303.427C897.158 303.431 896.869 303.901 897.993 305.933C898.086 306.128 898.127 306.344 898.11 306.56C898.094 306.775 898.021 306.983 897.899 307.161C897.706 307.567 897.301 307.587 896.911 307.561C896.802 307.56 896.694 307.536 896.594 307.492C896.494 307.448 896.404 307.384 896.329 307.305C896.254 307.225 896.196 307.131 896.159 307.028C896.121 306.926 896.105 306.816 896.111 306.707C896.042 305.844 895.937 304.981 895.924 304.117C895.869 300.607 895.71 297.092 895.848 293.589C895.979 290.167 895.125 286.68 896.608 283.316C896.715 283.007 896.752 282.678 896.717 282.353C896.682 282.028 896.575 281.715 896.405 281.436C896.234 281.157 896.004 280.919 895.731 280.74C895.458 280.56 895.149 280.443 894.825 280.396C894.437 280.336 894.21 280.321 894.247 279.87C894.372 278.316 893.983 276.718 894.648 275.209C894.876 274.837 894.949 274.389 894.85 273.964C894.492 272.866 894.042 271.994 892.599 272.169C891.425 272.311 889.869 271.79 889.118 272.377C887.873 273.35 887.326 271.522 886.271 272.139C885.707 272.469 884.787 272.175 884.029 272.194C882.476 272.233 881.492 273.42 882 274.856C882.492 276.248 882.322 277.638 882.368 279.036C882.418 279.33 882.354 279.632 882.187 279.879C882.021 280.127 881.765 280.301 881.474 280.365C881.182 280.471 880.916 280.638 880.694 280.856C880.473 281.074 880.301 281.336 880.189 281.627C880.078 281.917 880.031 282.227 880.05 282.537C880.069 282.847 880.155 283.15 880.302 283.424C881.173 285.336 880.985 287.238 881.006 289.163C881.046 292.428 881.015 292.438 877.853 292.338C877.457 292.325 876.877 292.59 876.711 292.049C876.578 291.617 877.049 291.295 877.307 290.957C878.105 289.908 879.27 289.162 880.116 287.637C878.09 288.614 876.775 289.958 875.18 291.095C875.29 289.332 876.753 288.232 876.803 286.605C875.05 288.711 873.409 290.867 872.779 293.833C870.914 291.293 868.498 290.104 865.981 289.057C866.892 290.299 868.411 290.879 869.493 292.365C867.469 292.116 865.828 291.372 864.049 291.624C865.622 292.58 867.42 293.016 869.014 294.028C865.301 296.063 861.189 297.556 860.382 302.491L859.774 299.804C859.025 301.846 859.774 303.511 859.872 305.19C856.853 304.937 856.357 304.98 854.766 305.624C855.436 306.069 856.365 305.483 857.053 306.177C856.235 306.982 854.995 306.967 854.186 307.842C854.98 308.089 855.562 307.691 856.184 307.602C856.652 307.535 857.197 307.181 857.557 307.622C857.865 308.002 857.405 308.418 857.274 308.814C856.887 309.989 856.254 311.1 856.205 312.782L857.882 310.175C857.897 311.782 857.376 313.079 857.902 314.478C858.623 313.643 858.228 312.627 858.824 311.955C859.289 313.018 859.008 314.284 859.786 315.372C860.263 314.369 859.754 313.415 860.18 312.4C860.738 313.488 861.244 314.466 861.742 315.444C861.683 314.151 861.487 312.868 861.159 311.616C861.021 311.107 861.082 310.564 861.329 310.097C861.576 309.631 861.99 309.275 862.489 309.102C863.545 308.723 863.688 309.955 864.008 310.601C865.539 313.663 865.435 314.102 863.049 316.481C860.51 319.013 859.793 322.257 859.451 325.663C859.254 327.637 859.391 327.865 861.342 327.868C866.981 327.878 872.621 327.868 878.26 327.881C878.81 327.767 879.383 327.865 879.863 328.156C873.17 328.156 866.669 328.156 860.167 328.156C859.625 328.156 859.081 328.156 858.542 328.198C857.945 328.247 857.485 328.521 857.461 329.185C857.441 329.461 857.528 329.735 857.702 329.95C857.877 330.165 858.127 330.305 858.402 330.341C858.934 330.437 859.475 330.478 860.016 330.462C865.927 330.47 871.837 330.472 877.747 330.468H879.384C872.277 330.748 865.184 330.772 858.085 330.729C856.729 330.721 855.626 330.875 855.363 333.038C854.964 332.376 854.796 332.157 854.689 331.912C854.263 330.925 852.874 329.897 855.145 329.194C856.19 328.87 856.07 327.508 855.828 326.6C855.581 325.669 854.653 325.545 853.805 325.774C853.128 325.958 852.462 326.401 851.766 326.139C848.301 324.831 844.783 325.882 841.297 325.893C840.194 325.869 839.123 326.262 838.297 326.992C837.471 327.723 836.951 328.738 836.84 329.835C836.69 331.439 836.843 333.057 837.289 334.605C835.391 334.594 833.492 334.525 831.604 334.626C829.836 334.722 828.975 334.193 828.661 332.313C828.025 328.505 826.763 324.72 824.143 321.942C821.149 318.769 820.59 315.268 820.933 311.295C820.97 310.858 820.946 310.415 820.946 309.975C820.946 306.882 820.946 306.823 817.761 306.826C816.206 306.826 815.446 306.411 815.103 304.708C814.431 301.362 812.819 298.355 809.582 296.92C807.639 296.059 805.824 295.45 805.678 292.907C805.537 296.116 802.968 296.897 800.85 297.015C798.45 297.15 795.924 296.047 795.824 292.546C795.449 293.189 795.207 293.902 795.113 294.64C794.917 296.555 793.182 296.401 792.105 296.495C791.028 296.589 791.519 295.227 791.515 294.539C791.472 286.614 791.481 278.69 791.496 270.766C791.496 269.383 791.589 268.045 789.59 268.06C788.612 268.067 788.803 267.248 788.708 266.606C788.259 263.559 788.244 263.565 785.181 263.574C783.933 263.578 782.684 263.604 781.439 263.549C778.528 263.422 777.965 262.776 777.852 259.799C777.799 258.38 778.308 256.902 777.468 255.285C777.255 255.649 777.091 256.04 776.98 256.448C776.873 257.686 776.819 258.929 776.768 260.168C776.651 262.978 775.827 263.699 773.104 263.438C771.938 263.326 770.763 263.269 769.592 263.267C766.783 263.26 766.493 263.547 766.215 266.348C766.149 267.014 766.523 268.049 765.365 268.008C763.11 267.932 763.182 269.396 763.183 270.942C763.193 279.307 763.189 287.671 763.17 296.036C763.164 298.51 762.364 298.788 760.051 298.148C757.819 297.53 755.552 296.42 753.099 297.161C752.024 297.486 750.967 298.716 749.928 297.05C749.736 296.741 749.316 296.931 749 297.236C748.343 297.87 747.488 298.26 746.579 298.342C745.669 298.423 744.758 298.191 743.998 297.684C743.175 297.076 742.193 296.72 741.172 296.659C740.349 296.567 738.863 296.899 739.547 295.091C739.599 294.952 739.282 294.554 739.058 294.456C738.643 294.275 738.4 294.432 738.422 294.968C738.449 295.58 737.967 295.672 737.511 295.576C736.98 295.468 736.97 294.975 736.878 294.539C736.701 293.698 737.133 292.678 736.099 291.79C735.854 292.624 735.677 293.477 735.568 294.34C735.527 295.327 735.026 295.7 734.178 296.025C730.468 297.451 728.653 296.633 727.62 292.81C727.231 291.367 726.766 292.332 726.386 292.658C725.902 291.833 726.789 291.051 726.11 290.021C725.646 291.453 725.66 292.996 726.149 294.419C726.35 295.045 726.401 295.57 725.659 295.862C724.991 296.123 724.48 295.984 724.293 295.255C724.235 294.929 724.062 294.634 723.807 294.424C723.551 294.214 723.229 294.101 722.898 294.107C722.183 294.043 721.075 294.497 721.045 293.201C721.014 292.046 720.522 290.745 722.215 290.047C723.43 289.546 723.665 283.701 722.614 282.971C722.291 282.802 721.934 282.705 721.569 282.689C719.394 282.375 718.663 282.266 718.414 281.254C718.27 281.143 718.142 281.012 718.035 280.865C717.849 280.865 717.665 280.841 717.486 280.795C717.268 280.733 717.06 280.64 716.87 280.519L716.853 280.525C716.212 280.681 715.93 280.259 715.731 279.737C715.585 279.358 715.671 278.813 715.047 278.75C714.153 279.171 714.448 280.866 713.286 280.748C711.986 280.615 713.109 278.804 712.076 278.324C711.165 278.431 711.635 279.775 710.44 279.792C707.63 274.254 704.775 268.661 701.969 263.042C701.568 262.239 701.398 261.307 700.223 261.43C699.119 261.547 698.704 261.079 698.495 259.988C698.22 259.113 698.039 258.211 697.955 257.298C697.972 254.81 695.82 255.538 693.615 255.324C695.946 254.413 694.687 252.818 695.326 251.655C696.194 250.077 695.974 249.169 693.767 249.057C690.843 248.905 690.303 247.622 691.835 245.25C692.627 245.521 692.362 246.389 692.751 246.881C692.848 247.038 692.994 247.16 693.166 247.225C693.339 247.291 693.529 247.298 693.706 247.244C693.934 247.158 694.289 246.812 694.249 246.687C693.935 245.686 694.098 244.015 692.914 243.953C691.312 243.871 691.631 242.976 691.541 242.11C691.482 241.538 691.679 240.89 691.188 240.439C689.654 239.03 689.928 236.871 688.974 235.2C687.9 233.313 687.511 231.126 686.865 228.918C686.579 231.879 685.219 234.309 684.22 236.858C684.112 237.052 684.069 237.276 684.096 237.496C684.728 239.131 683.526 240.018 682.616 240.926C681.618 241.922 680.427 242.672 681.769 244.291C682.012 244.573 682.179 244.912 682.255 245.275C682.331 245.639 682.314 246.016 682.206 246.372C681.405 248.735 681.698 251.156 681.929 253.55C682.008 253.818 682.002 254.104 681.912 254.368C681.821 254.633 681.651 254.863 681.425 255.026C679.463 256.63 677.789 258.556 676.474 260.721C675.704 261.952 674.033 262.676 674.068 264.674C672.083 261.916 668.211 261.982 666.26 259.157C666.018 258.805 665.636 259.114 665.286 259.228C663.423 259.841 661.746 259.017 660.057 258.421C659.665 258.282 659.213 257.921 659.444 257.411C660.595 254.878 658.698 252.802 658.555 250.448C657.966 252.802 656.6 254.979 657.481 257.517C657.708 258.172 657.042 258.558 656.463 258.732C655.833 258.921 655.172 259.008 654.527 259.147C643.699 261.501 635.434 270.016 634.642 279.962C634.457 282.278 633.591 282.738 631.539 282.686C626.919 282.568 622.294 282.643 617.671 282.646C614.482 282.646 614.394 282.741 614.381 286.023C614.381 286.893 614.381 287.764 614.381 288.634C613.587 285.533 614.404 282.494 614.4 279.427C614.384 264.729 614.371 250.031 614.363 235.332C614.108 235.507 613.82 235.626 613.516 235.682C613.548 236.745 613.459 237.808 612.073 237.966C609.902 238.211 607.413 239.07 605.578 237.243C603.495 235.169 601.54 234.847 599.293 236.682C598.287 237.502 597.175 237.848 596.179 236.757C595.308 235.865 594.56 234.861 593.954 233.771C591.987 229.924 589.968 226.089 588.309 222.106C587.344 219.788 585.355 218.102 584.716 215.635C584.656 215.4 584.133 215.201 583.796 215.136C582.429 214.876 580.958 214.261 579.695 214.54C577.369 215.054 576.71 214.2 576.795 212.123C576.795 212.078 576.562 212.025 576.401 211.962C575.83 212.743 576.089 213.647 576.087 214.486C576.068 224.61 576.069 234.735 576.091 244.862C576.096 246.867 576.106 248.804 574.639 250.442C574.031 251.117 574.099 252.071 574.126 252.97C574.229 254.213 574.204 255.462 574.05 256.699C573.942 257.434 573.587 258.111 573.043 258.617C572.499 259.123 571.798 259.428 571.057 259.482C569.772 259.465 570.48 257.792 570.471 256.9C570.402 250.14 570.366 243.38 570.362 236.62C570.344 236.62 570.325 236.62 570.306 236.625C570.36 221.786 570.945 172.575 571.409 160.77C571.561 156.813 570.451 152.521 573.004 148.819C573.051 148.721 573.074 148.613 573.07 148.505C573.065 148.396 573.035 148.29 572.98 148.196C571.781 146.808 573.863 144.901 572.255 143.558C572.179 143.495 572.432 142.852 572.672 142.636C572.942 142.383 573.145 142.067 573.262 141.716C573.38 141.366 573.41 140.992 573.348 140.627C573.035 137.493 574.435 134.875 575.677 132.161C578.057 126.959 581.904 122.247 580.91 115.892C580.589 113.835 581.745 111.33 580.516 109.647C578.412 106.772 578.299 103.573 577.847 100.357C577.634 98.8383 577.354 97.3197 577.054 95.814C576.941 95.2491 576.674 94.3713 576.081 94.5414C574.049 95.1207 574.272 93.5725 573.893 92.5004C573.488 91.3546 573.433 89.615 572.282 89.3265C570.186 88.795 570.502 87.4237 570.389 85.9764C570.237 84.022 571.497 81.4677 568.312 80.6461C568.068 80.5831 567.835 80.0554 567.788 79.7167C567.435 77.1821 565.928 74.9581 566.227 72.195C566.421 69.1929 566.443 66.1822 566.295 63.1775C566.283 61.2921 565.823 59.3741 566.926 57.5973C567 57.4879 567.049 57.3639 567.071 57.2338C567.093 57.1036 567.086 56.9703 567.052 56.8428C567.018 56.7153 566.957 56.5965 566.874 56.4946C566.79 56.3926 566.685 56.3098 566.567 56.2517C565.248 55.62 565.558 54.4416 565.503 53.3816C565.059 44.9404 566.018 36.4976 565.221 28.0321C564.829 23.8696 564.514 19.5468 565.626 15.3516C565.671 15.1765 565.678 14.9938 565.648 14.8155C565.618 14.6372 565.55 14.4674 565.45 14.3168C564.425 13.1991 564.674 11.8459 564.667 10.5498C564.645 7.04937 564.659 3.54899 564.659 0.048583L563.931 -0.00610352C563.833 0.239801 563.756 0.49389 563.703 0.753205C563.137 5.49432 564.682 10.3965 562.61 15.0282C562.534 15.1915 562.695 15.4489 562.718 15.666C563.25 20.6562 563.984 25.6509 562.239 30.575C562.122 30.9945 562.157 31.4418 562.338 31.8377C562.719 32.8678 562.863 33.9702 562.76 35.0633C562.769 40.7133 562.798 46.3633 562.742 52.0118C562.726 53.6063 563.36 55.4363 561.451 56.5631C561.066 56.7909 561.18 57.3846 561.418 57.778C562.109 58.9245 561.95 60.1896 561.954 61.4265C561.978 65.7545 562.334 70.1221 561.867 74.3977C561.593 76.9035 561.375 79.9453 558.464 81.4244C557.617 81.8557 557.588 82.7516 557.604 83.5504C557.627 84.7197 557.797 85.8861 557.85 87.0569C557.879 87.7008 558.025 88.6879 557.338 88.8277C554.711 89.3592 554.756 91.6804 553.978 93.4594C553.75 93.9742 553.619 94.9477 553.046 94.7844C550.687 94.1101 551.094 96.0684 550.896 97.0904C550.41 99.6037 550.583 102.303 549.77 104.683C548.333 108.889 545.984 112.841 547.399 117.546C545.972 119.81 547.441 121.726 548.15 123.73C548.27 124.078 548.424 124.412 548.611 124.729C548.773 124.981 548.898 125.256 548.982 125.545C549.139 125.773 549.252 126.027 549.317 126.296C549.522 126.545 549.67 126.837 549.749 127.149C551.676 127.443 552.537 128.498 553.721 130.556C554.669 132.204 555.058 134.054 556.12 135.644C556.852 136.752 557.199 138.07 557.107 139.394C557.039 140.526 556.775 141.767 557.622 142.782C557.97 143.198 558.128 143.642 557.818 144.059C557.762 145.189 557.642 146.316 557.459 147.433C557.464 147.538 557.469 147.644 557.474 147.751C558.646 149.894 558.702 152.596 558.822 155.254C558.954 156.865 558.866 158.486 558.561 160.073C558.395 160.562 558.4 161.092 558.575 161.578C560.234 164.298 559.567 167.288 559.602 170.167C559.706 178.747 559.706 187.323 559.684 195.901C559.684 196.442 559.627 230.041 559.472 236.729C559.327 236.729 559.182 236.737 559.036 236.738C558.76 236.977 558.418 237.128 558.056 237.171C555.839 237.566 553.499 239.631 551.572 236.764C551.383 236.372 551.08 236.047 550.704 235.83C550.327 235.614 549.894 235.516 549.46 235.549C548.58 235.677 547.682 235.546 546.876 235.171C546.07 234.795 545.392 234.193 544.924 233.437C544.496 238.221 547.438 242.149 545.742 246.615C545.742 245.073 545.742 243.833 545.742 242.59C545.742 241.348 545.872 240.102 544.801 239.116C544.663 238.947 544.559 238.752 544.495 238.543C544.432 238.333 544.411 238.113 544.432 237.896C544.916 232.291 543.148 227.024 542.045 221.658C542.005 221.294 541.94 220.933 541.852 220.578C541.638 219.966 542.194 218.773 541.122 218.853C540.635 218.876 540.173 219.077 539.825 219.417C539.476 219.758 539.264 220.215 539.23 220.701C539.204 222.225 538.839 223.37 537.264 223.99C536.937 224.177 536.677 224.461 536.521 224.804C536.365 225.147 536.321 225.53 536.395 225.899C536.67 227.81 535.539 229.561 535.959 231.495C535.991 231.734 535.975 231.977 535.912 232.21C535.848 232.443 535.738 232.661 535.589 232.85C535.44 233.04 535.254 233.198 535.043 233.314C534.831 233.43 534.599 233.503 534.359 233.528C533.532 233.658 533.708 232.535 533.613 231.972C533.142 229.18 533.378 226.346 533.071 223.511C532.299 217.347 531.971 211.135 532.09 204.924C532.474 194.15 532.023 183.368 532.08 172.589C532.089 171.031 532.612 169.506 532.46 167.934C531.963 167.021 531.544 166.068 531.209 165.085C529.808 164.897 529.415 164.051 529.438 162.396C529.526 156.087 529.469 149.777 529.468 143.467C529.468 127.838 529.471 112.209 529.478 96.5816C529.478 95.4358 529.088 94.1048 529.934 93.1868C530.651 92.41 531.188 91.7601 530.715 90.7153C530.152 89.4723 528.984 89.8116 528.012 89.7995C524.49 89.7562 520.968 89.7806 517.446 89.7646C516.554 89.7601 515.484 89.7737 515.465 88.558C515.41 85.1206 514.963 81.6484 515.679 78.2566C516.169 75.9414 516.204 75.7683 513.868 75.6749C512.194 75.6066 510.207 76.3195 508.922 75.3081C507.428 74.1312 508.443 71.9983 508.265 70.2967C508.149 69.1821 507.89 68.46 506.573 68.5959C504.269 68.8335 503.947 67.1532 503.779 65.4994C503.77 64.5425 503.972 63.5952 504.37 62.7249C504.813 61.4781 505.022 60.2435 502.974 60.611C502.266 60.7378 502.02 60.3278 501.926 59.7932C501.377 56.6322 500.599 53.5046 500.058 50.3626C499.507 47.1575 499.723 43.7976 499.564 40.5068C499.461 38.3723 498.467 36.0071 500.157 33.957C500.275 33.7618 500.313 33.5285 500.262 33.3061C500.212 33.0837 500.077 32.8895 499.887 32.7641C498.915 32.0549 499.116 30.9418 498.87 29.963C498.775 30.039 498.691 30.0686 498.676 30.1195C498.049 32.2427 497.817 34.463 497.993 36.67C498.361 44.2638 497.627 51.8709 495.813 59.2541C495.658 59.9246 495.672 60.8858 494.576 60.7029C492.742 60.3991 493.045 61.472 493.333 62.5358C493.525 63.2427 493.838 63.9185 493.999 64.6307C494.472 66.7173 493.408 68.4128 491.384 68.6452C491.146 68.6381 490.909 68.6841 490.69 68.7797C490.472 68.8753 490.277 69.018 490.121 69.1979C489.964 69.3777 489.849 69.5901 489.785 69.8196C489.72 70.0492 489.708 70.2902 489.747 70.5253C489.754 71.5519 489.689 72.5823 489.744 73.6058C489.82 75.1168 489.147 75.7462 487.655 75.6999C486.115 75.6529 484.573 75.6961 483.032 75.7151C482.038 75.7273 481.125 76.0606 481.403 77.2292C482.221 80.6727 482.071 84.1389 482.078 87.6317C482.078 89.4092 481.439 89.7965 479.927 89.7851C476.185 89.7578 472.443 89.7651 468.701 89.8071C466.866 89.8291 466.043 90.9461 467.085 92.2582C468.3 93.7821 468.162 95.3797 468.163 97.0259C468.179 120.138 468.18 143.25 468.168 166.362C468.133 187.904 468.348 209.446 467.976 230.972C465.889 231.005 465.588 229.651 465.622 228.103C465.674 225.835 465.415 223.551 465.926 221.303C466.06 220.716 466.216 219.913 465.705 219.655C463.969 218.776 463.674 216.596 461.989 215.735C461.548 215.529 461.191 215.176 460.98 214.737C460.77 214.297 460.718 213.798 460.834 213.325C461.294 211.337 460.237 209.905 459.632 208.436C457.658 209.185 458.019 210.786 458.019 212.233C458.072 212.709 457.999 213.191 457.807 213.631C457.616 214.071 457.312 214.452 456.927 214.738C454.918 216.115 453.977 218.552 451.854 219.821C451.672 219.945 451.532 220.12 451.449 220.323C451.367 220.527 451.347 220.75 451.391 220.965C451.49 222.677 451.478 224.393 451.354 226.102C451.196 228.921 451.308 228.927 448.672 228.272C446.637 227.766 445.886 228.367 445.953 230.429C445.976 231.136 445.957 231.843 445.957 232.626C444.766 231.316 443.947 229.712 443.584 227.979C443.429 228.016 443.271 228.038 443.112 228.044C438.656 228.225 434.227 228.879 429.757 228.778C429.411 228.774 429.071 228.69 428.763 228.533C425.69 228.524 422.617 228.408 419.546 228.468C417.772 228.502 416.669 228.386 415.987 227.903C415.711 228.087 415.4 228.212 415.074 228.272C414.747 228.331 414.412 228.324 414.089 228.249C414.077 236.279 414.068 244.309 414.063 252.338C414.063 254.026 414.04 255.713 414.029 257.401C414.022 258.369 413.805 259.223 412.608 259.19C410.495 259.131 408.074 259.958 406.357 258.815C404.883 257.834 405.938 255.525 405.735 253.818C405.727 253.745 405.725 253.671 405.729 253.598C405.786 252.197 405.112 251.615 403.719 251.67C402.254 251.728 400.784 251.67 399.314 251.678C398.175 251.684 397.634 251.028 397.791 250.007C397.948 248.987 396.899 247.616 398.664 247.026C400.791 246.316 400.914 245.54 399.562 243.616C398.645 242.311 396.653 241.151 398.619 239.141C398.721 238.909 398.762 238.655 398.738 238.403C398.714 238.151 398.625 237.91 398.48 237.702C397.465 236.839 397.611 236.308 398.43 235.297C399.506 233.968 397.88 233.295 397.413 232.294C397.074 231.567 399.718 230.309 398.392 229.132C396.351 227.321 396.6 225.12 396.505 222.925C396.187 215.555 393.24 209.781 386.531 206.265C384.925 205.423 384.624 204.327 385.648 202.889C386.426 201.797 386.627 200.781 385.582 199.757C385.304 199.485 385.088 199.132 385.294 198.776C386.365 196.923 385.188 196.245 383.457 195.851C385.052 194.551 385.92 193.356 383.96 192.032C383.514 191.728 383.51 191.612 383.916 191.297C386.05 189.644 384.553 188.645 383.173 187.675C385.071 185.976 385.022 185.478 382.738 183.604C383.948 183.083 384.718 181.918 383.909 181.023C382.396 179.352 384.849 177.087 382.819 175.691C384.358 174.011 382.996 172.857 382.189 171.481C381.692 170.491 381.506 169.372 381.657 168.274C381.822 166.227 381.547 164.169 380.85 162.238C380.698 161.816 380.575 161.354 379.998 161.427C379.56 161.483 379.449 161.883 379.373 162.238C379.13 163.226 378.937 164.226 378.796 165.234C378.492 168.02 379.127 170.987 377.053 173.417C376.936 173.6 376.867 173.81 376.852 174.027C376.837 174.244 376.876 174.461 376.967 174.659C378.376 176.254 375.384 178.412 377.662 179.844C377.582 179.958 377.526 180.117 377.416 180.181C375.935 181.038 375.777 181.865 376.976 183.294C378.086 184.614 375.148 184.874 375.791 186.299C375.955 186.615 376.21 186.875 376.522 187.045C377.229 187.443 377.403 187.814 376.605 188.279C374.307 189.617 375.627 190.617 377.009 191.555C374.731 193.15 374.737 193.841 377.11 195.913C375.397 196.271 374.37 197.056 375.06 198.93C375.15 199.175 374.876 199.609 374.68 199.895C374.322 200.315 374.127 200.85 374.128 201.402C374.13 201.955 374.328 202.488 374.689 202.907C375.712 204.274 375.332 205.347 373.808 206.075C372.042 206.819 370.449 207.923 369.132 209.315C367.6 211.09 365.81 212.836 364.92 214.933C363.338 218.654 363.451 222.798 363.053 226.789C362.955 227.776 362.682 228.193 361.698 228.388C360.578 228.609 359.869 229.409 360.845 230.412C361.945 231.542 362.185 232.551 361.387 233.921C361.238 234.261 361.17 234.63 361.186 235C361.202 235.37 361.302 235.732 361.48 236.057C361.666 236.513 362.087 236.994 361.588 237.462C360.004 238.947 362.448 239.71 362.187 240.803C361.875 242.108 359.382 241.593 359.564 243.578C359.569 244.018 359.521 244.458 359.423 244.887C359.316 245.597 359.646 246.558 358.967 246.954C357.69 247.694 356.178 247.919 354.74 247.582C354.087 247.437 353.514 247.049 353.137 246.497C352.709 246.839 352.166 247.003 351.621 246.955C351.076 246.907 350.57 246.652 350.208 246.241C350.179 259.568 350.071 272.893 349.778 286.219C349.745 287.728 349.657 289.206 348.573 290.395C348.15 269.022 348.041 247.666 348.003 226.317C347.621 226.424 347.22 226.438 346.832 226.359C346.073 226.207 345.329 226.077 344.575 225.979C344.109 226.213 343.59 226.319 343.07 226.287C332.651 226.281 322.232 226.285 311.811 226.3C311.463 226.338 311.111 226.299 310.78 226.185C310.449 226.07 310.147 225.884 309.897 225.638C308.918 225.726 307.911 225.751 306.912 225.847C306.596 225.862 306.28 225.8 305.993 225.666C305.706 225.532 305.456 225.331 305.263 225.079C305.259 229.543 305.254 234.006 305.249 238.468C305.249 239.199 305.546 240.049 304.806 240.71C304.111 240.151 303.51 239.255 302.863 239.22C300.222 239.076 300.418 237.335 300.419 235.519C300.437 197.953 300.444 160.386 300.439 122.82C300.439 117.61 300.408 112.4 300.451 107.191C300.465 105.425 299.767 104.661 297.96 104.724C295.615 104.806 293.264 104.739 290.916 104.716C290.185 104.709 289.238 104.748 289.164 103.8C289.012 101.845 287.76 101.669 286.247 101.68C285.435 101.687 284.333 101.63 284.506 100.542C284.766 98.9044 284.068 97.2582 284.475 95.7525C285.097 93.4511 284.015 93.2468 282.247 93.3151C280.48 93.3834 278.593 92.9264 277.002 93.4488C275.356 93.9894 274.364 91.3401 272.833 92.9749C272.66 92.7583 272.511 92.5236 272.389 92.2748C272.19 91.7502 272.531 91.1078 272.026 90.5771C271.488 91.2316 272.16 92.2392 271.266 92.8481C270.142 91.5869 270.899 89.8664 270.136 87.9309C270.041 89.5118 269.984 90.4646 269.925 91.4176L269.581 91.4047V87.6181C269.259 88.9678 269.029 90.3377 268.891 91.7183C268.7 92.8148 268.294 93.9849 267.024 92.4116C266.744 92.0661 266.424 91.8587 266.188 92.2953C265.399 93.7752 264.038 93.2772 262.858 93.3015C260.291 93.3554 257.722 93.3242 255.154 93.3508C254.324 93.3591 253.242 93.4844 253.444 94.5376C253.757 96.167 253.17 97.7738 253.501 99.3213C253.891 101.144 253.269 101.761 251.517 101.714C250.439 101.685 249.155 101.579 248.982 103.138C248.83 104.51 248.001 104.75 246.839 104.733C244.491 104.702 242.143 104.765 239.795 104.728C238.369 104.705 237.722 105.107 237.734 106.748C237.816 118.706 237.77 130.666 237.85 142.625C237.858 143.916 236.768 145.092 237.005 145.948C237.362 147.502 237.506 149.098 237.432 150.692C237.497 175.125 237.511 199.557 237.475 223.991C237.53 224.463 237.48 224.942 237.328 225.393C237.177 225.843 236.927 226.255 236.598 226.599C235.759 227.321 235.126 228.252 234.764 229.298C234.401 230.344 234.323 231.468 234.536 232.554C234.724 233.592 234.528 234.563 233.45 234.917C231.902 235.426 230.937 236.297 230.993 238.176C229.796 236.273 229.173 234.066 229.197 231.819C229.222 195.647 229.217 159.475 229.181 123.302C229.181 117.873 229.135 112.444 229.189 107.014C229.207 105.305 228.554 104.643 226.845 104.71C224.501 104.802 222.15 104.742 219.802 104.72C219.011 104.713 217.931 104.827 217.883 103.746C217.794 101.714 216.555 101.626 215.032 101.674C214.286 101.699 212.995 101.815 213.343 100.642C213.875 98.8641 213.046 97.1435 213.512 95.4222C213.908 93.9605 213.157 93.3645 211.79 93.3493C209.809 93.3265 207.828 93.3189 205.846 93.3265C204.5 93.3341 203.112 93.4602 202.974 91.672C202.063 91.6667 202.525 92.8922 201.66 92.7122C201.128 92.0289 201.752 90.9559 200.95 90.3409C200.149 91.0076 200.884 92.1458 199.999 92.7707C199.546 91.7942 199.444 90.6915 199.709 89.6484C199.821 89.2009 199.75 88.7274 199.513 88.332C199.275 87.9367 198.89 87.6517 198.443 87.5398C197.355 87.5353 197.958 88.722 197.844 89.3918C197.736 90.0341 197.854 90.7122 197.797 91.3659C197.674 92.7608 197.512 94.2005 195.735 92.4541C195.416 92.1398 195.293 92.2058 195.114 92.5346C194.518 93.6242 193.456 93.2939 192.553 93.3098C189.766 93.3523 186.976 93.3143 184.189 93.3348C183.208 93.3417 181.961 93.445 182.184 94.7358C182.454 96.2985 181.898 97.8186 182.204 99.3038C182.564 101.042 182.2 101.828 180.272 101.62C179.246 101.51 178.07 101.615 178.023 103.068C177.969 104.663 176.954 104.739 175.763 104.733C173.488 104.715 171.21 104.809 168.94 104.715C167.103 104.639 166.504 105.418 166.526 107.195C166.595 112.843 166.55 118.493 166.549 124.143C166.549 129.561 166.549 134.981 166.549 140.705C165.456 139.877 164.436 139.984 163.43 139.984C160.642 139.984 157.854 139.985 155.066 139.988C151.242 139.988 150.258 140.877 149.789 144.712C149.706 145.395 149.837 146.07 148.69 146.224C143.102 146.976 137.527 146.414 131.949 146.214C130.477 146.161 129.221 146.228 129.233 148.134C129.266 153.34 129.114 158.543 129.352 163.753C129.545 167.985 129.428 172.231 129.47 176.471C129.514 180.991 128.827 185.491 128.814 189.986C128.766 206.338 128.599 222.69 128.933 239.043C129.12 248.123 128.819 257.213 128.744 266.302C128.724 268.797 128.729 271.291 128.722 273.786C128.722 274.808 128.352 275.478 127.189 275.476C126.027 275.475 125.656 274.775 125.681 273.766C125.722 272.1 125.459 270.437 126.298 268.815C127.093 267.279 127.002 265.829 124.998 265.131C124.542 264.973 123.766 264.455 123.81 264.321C124.427 262.423 123.354 260.661 123.467 258.819C123.678 255.28 121.97 252.031 121.864 248.534C121.853 248.199 121.669 247.743 121.194 247.846C121.066 247.898 120.951 247.978 120.859 248.081C120.767 248.183 120.7 248.306 120.662 248.439C120.091 251.02 119.727 253.644 119.247 256.235C118.748 258.986 118.522 261.78 118.57 264.576C118.579 265.151 118.246 266.702 116.768 266.683C114.565 266.655 112.439 267.301 110.211 267.232C106.326 267.111 102.434 267.193 98.5449 267.202C95.1823 267.21 95.1846 267.219 94.748 270.598C94.7092 270.902 94.5748 271.154 93.9582 271.021C93.574 269.617 94.6417 268.313 94.5581 266.9C94.5308 266.434 94.5702 265.964 94.0121 265.881C93.6566 265.812 93.2883 265.883 92.9832 266.077C92.6103 266.411 93.0667 266.708 93.2429 266.995C93.3887 267.232 93.6393 267.441 93.3507 267.773C91.4348 267.773 89.4954 267.773 87.5559 267.773C86.855 267.773 86.2452 267.807 86.189 268.767C86.1151 270.119 85.5252 271.39 84.5409 272.32C83.5566 273.249 82.2531 273.766 80.8993 273.762C77.3796 273.756 73.8598 273.788 70.3439 273.727C68.7986 273.7 67.0634 274.248 65.919 272.552C65.8605 272.479 65.7861 272.421 65.7014 272.381C65.6168 272.341 65.5241 272.321 65.4307 272.323C65.3372 272.325 65.2453 272.348 65.1622 272.391C65.079 272.433 65.0067 272.495 64.9509 272.57C64.8767 272.626 64.8163 272.698 64.7741 272.781C64.732 272.864 64.7092 272.956 64.7074 273.049C64.7057 273.142 64.725 273.235 64.764 273.319C64.803 273.404 64.8607 273.479 64.9326 273.538C67.8084 276.025 64.824 275.423 63.8376 275.436C57.0883 275.523 50.3367 275.522 43.5866 275.5C41.471 275.494 39.2582 275.197 39.6379 278.468C39.6457 278.577 39.6274 278.686 39.5846 278.787C39.5418 278.887 39.4757 278.976 39.3918 279.046C36.8099 280.049 37.6316 282.289 37.6164 284.125C37.5549 291.555 37.5913 298.987 37.5913 306.681C35.8957 305.025 35.4096 305.1 34.8712 306.897C34.6586 307.605 34.6776 308.399 33.7048 308.511C32.6273 308.635 32.4056 307.788 32.0563 307.06C31.831 306.349 31.3476 305.75 30.7015 305.378C29.3088 304.833 29.2268 303.747 29.2336 302.513C29.2579 298.422 29.2428 294.332 29.2428 290.241C28.8874 290.883 28.7331 291.617 28.8 292.347C28.7823 300.271 28.7633 308.195 28.7431 316.12C28.7324 319.12 28.7059 319.133 25.6213 319.142C22.4661 319.152 19.3109 319.146 16.1557 319.171C15.5634 319.175 14.8807 319.256 14.8647 320.041C14.8549 320.61 15.3963 320.584 15.8428 320.649C18.121 320.994 19.358 322.693 19.2418 325.013C19.0666 327.354 19.0412 329.704 19.1658 332.048C19.3283 334.133 18.6214 334.689 16.6075 334.635C11.8417 334.506 7.06902 334.63 2.30014 334.582C0.637113 334.566 -0.189112 335.149 0.00528755 336.899C0.0584656 337.557 0.0660997 338.219 0.028091 338.878C-0.00456208 340.017 0.586229 340.459 1.65771 340.436C2.3176 340.422 2.97827 340.449 3.63892 340.449H4.95944V349.996H1458V338.247L1452.57 338.251ZM861.843 303.151C861.439 299.41 862.739 297.835 866.891 296.897C865.018 298.867 863.207 300.692 861.843 303.151V303.151ZM414.483 277.28C413.179 277.459 411.895 277.761 410.649 278.185C407.879 279.096 405.267 277.672 405.01 274.654C404.744 271.529 404.934 268.364 404.955 265.216C404.96 264.337 405.505 263.993 406.344 263.826C409.163 263.392 412.018 263.229 414.869 263.339C416.195 263.332 416.707 263.947 416.682 265.216C416.649 266.899 416.674 268.583 416.674 270.267H416.683C416.683 271.732 416.622 273.2 416.699 274.66C416.785 276.286 416.113 277.072 414.483 277.28V277.28ZM840.218 337.596C840.218 337.458 840.218 337.316 840.224 337.175C840.268 337.322 840.321 337.467 840.382 337.607C840.321 337.607 840.271 337.601 840.218 337.596V337.596ZM840.172 335.888C840.123 335.539 839.95 335.221 839.683 334.991C839.417 334.761 839.077 334.636 838.725 334.638C838.49 333.548 838.377 332.435 838.389 331.32C838.407 329.942 838.835 328.565 840.472 328.257C841.257 328.11 842.522 327.714 841.898 329.496C841.633 330.256 842.316 330.919 842.754 331.507C843.468 332.465 843.308 333.19 842.339 333.785C841.384 334.368 840.434 334.949 840.172 335.888V335.888ZM842.071 338.251L842.06 338.24C841.128 337.343 841.351 336.497 842.287 335.815C843.144 335.192 844.077 334.676 845.075 334.051C844.931 334.784 844.617 335.473 844.157 336.061C843.701 336.814 843.77 337.435 844.587 337.802C844.868 337.933 845.139 338.083 845.399 338.251H842.071ZM854.601 336.687C853.662 336.755 852.919 337.229 852.934 338.251H849.777C849.81 337.688 849.18 337.301 848.638 336.946C848.521 336.88 848.421 336.787 848.346 336.676C848.271 336.564 848.223 336.437 848.206 336.304C848.054 335.165 850.028 331.618 851.101 331.072C851.409 330.915 851.86 330.714 851.883 331.117C851.977 332.975 854.53 333.381 854.326 335.449C854.269 336.031 855.086 336.296 855.721 336.314C856.355 336.332 856.994 336.318 857.63 336.318C856.641 336.578 855.62 336.703 854.597 336.687H854.601ZM873.381 336.648C872.662 336.658 871.71 336.472 871.825 337.711C871.843 337.897 871.861 338.079 871.889 338.253H866.776C866.785 338.165 866.795 338.076 866.799 337.979C866.849 336.815 866.163 336.634 865.245 336.641C863.859 336.651 862.472 336.641 861.086 336.641C861.593 336.406 862.151 336.3 862.71 336.333C864.668 336.245 866.694 336.739 868.475 335.337C869.159 334.799 870.093 335.13 870.753 335.655C871.455 336.172 872.321 336.415 873.188 336.339C875.252 336.32 877.316 336.332 879.379 336.332C877.388 336.576 875.382 336.681 873.377 336.648H873.381ZM871.33 305.68C870.799 305.604 870.768 305.1 870.731 304.666C870.637 303.541 870.549 302.416 870.427 300.902C870.411 300.423 870.48 299.602 871.648 299.631C872.851 299.659 872.635 300.583 872.559 301.289C872.435 302.463 872.209 303.628 871.996 304.792C871.92 305.181 871.966 305.77 871.323 305.68H871.33ZM880.697 310.814C880.684 311.345 880.772 311.946 880.317 312.342C879.696 312.881 878.998 313.755 878.525 312.18C878.394 311.823 878.215 311.486 877.994 311.177C877.686 310.693 877.49 310.231 877.301 311.301C877.198 311.883 876.685 310.906 876.18 311.259C877.383 312.702 876.479 313.028 875.138 313.127C874.722 313.158 874.73 313.203 874.662 313.983C874.631 314.344 874.3 314.35 874.07 314.386C873.729 314.481 873.366 314.469 873.032 314.35C872.698 314.232 872.408 314.015 872.201 313.726C872.047 313.438 871.993 313.106 872.049 312.784C872.657 308.845 873.285 304.909 873.948 300.729C875.606 302.055 874.965 303.434 874.631 304.714C874.297 305.994 873.826 307.252 873.416 308.518C874.848 307.266 875.48 305.647 876.461 303.819C876.689 305.912 876.046 307.646 876.184 309.454C877.211 307.994 877.399 306.189 878.142 304.18C878.69 305.752 878.428 307.108 879.238 308.205C879.548 305.957 879.595 303.681 879.378 301.423C880.285 302.571 880.776 303.992 880.773 305.454C880.694 307.24 880.728 309.028 880.689 310.814H880.697ZM993.54 283.33C997.174 280.114 999.078 275.975 1000.21 271.354C1000.78 269.067 1001.63 266.85 1002.35 264.602L1002.85 264.754C1002.15 267.123 1001.46 269.496 1000.74 271.86C1000.15 273.777 999.483 275.67 998.936 277.597C998.552 278.555 997.943 279.407 997.161 280.081C995.547 281.866 994.114 283.835 992.149 285.306C992.338 284.494 992.834 283.786 993.532 283.33H993.54ZM996.137 299.858C996.428 301.346 995.882 302.162 994.507 302.135C993.57 302.238 993.423 301.882 993.511 300.817C993.838 297.112 993.895 293.388 993.682 289.674C993.741 288.764 993.596 287.852 993.259 287.004C993.206 286.922 993.173 286.829 993.162 286.732C993.151 286.636 993.163 286.538 993.196 286.446C993.228 286.355 993.282 286.272 993.352 286.204C993.422 286.136 993.506 286.086 993.599 286.056C994.316 285.857 995.07 285.501 995.801 285.79C996.371 286.018 996.181 286.608 996.081 287.081C995.245 291.3 995.262 295.644 996.13 299.858H996.137ZM996.522 305.925V306.284H969.196C969.196 306.164 969.196 306.044 969.196 305.925H996.522ZM991.004 303.025C991.031 303.725 989.825 303.429 989.174 303.43C980.676 303.452 972.177 303.455 963.679 303.438C963.257 303.438 962.834 303.4 962.129 303.362C962.716 302.769 962.939 302.322 963.633 302.349C972.126 302.679 980.622 302.406 989.116 302.524C989.771 302.536 990.96 302.06 990.996 303.026L991.004 303.025ZM987.236 288.896C988.102 288.516 988.299 287.731 988.937 286.618C989.233 288.103 989.508 289.189 989.645 290.293C989.709 290.814 989.879 291.573 988.929 291.633C988.138 291.684 987.314 291.667 987.08 290.731C986.925 290.138 986.243 289.324 987.228 288.896H987.236ZM988.367 296.473C988.382 297.263 987.334 296.94 986.757 296.943C978.685 296.999 970.613 297.041 962.54 297.025C961.623 296.904 960.723 296.68 959.856 296.356C960.067 296.202 960.306 296.093 960.56 296.034C960.814 295.975 961.078 295.967 961.334 296.012C969.789 296.004 978.242 296.007 986.693 296.019C987.286 296.02 988.345 295.742 988.359 296.473H988.367ZM985.359 288.943L985.422 289.038H931.032V288.943H985.359ZM929.859 296.022C938.256 295.996 946.654 296.006 955.051 296.007H956.332C955.07 297.008 953.66 296.994 952.201 296.984C944.779 296.934 937.356 296.971 929.934 296.943C929.289 296.943 928.132 297.293 928.111 296.533C928.076 295.684 929.223 296.024 929.852 296.022H929.859ZM956.304 315.71H956.297H956.29H956.304ZM956.235 315.705H956.206H956.179H956.206H956.235ZM955.935 315.697H955.907H955.922H955.935ZM955.669 315.72H955.66H955.651H955.66H955.669ZM955.517 315.746H955.509H955.502H955.509H955.517ZM955.417 315.768H955.411H955.406H955.411H955.417ZM955.275 315.808H955.266H955.256H955.266H955.275ZM955.181 315.837H955.177H955.173H955.177H955.181ZM955.037 315.893L955.024 315.898L955.011 315.903L955.023 315.898L955.037 315.893ZM954.468 316.192L954.46 316.198L954.449 316.205L954.458 316.199L954.468 316.192ZM919.875 305.893H947.243L947.254 306.312H919.874C919.868 306.173 919.869 306.034 919.869 305.894L919.875 305.893ZM919.272 319.045C920.345 319.049 920.572 318.35 920.821 317.468C921.025 318.429 921.404 319.022 922.416 319.023C923.427 319.025 923.843 318.464 924.026 317.452C924.283 318.414 924.591 319.112 925.723 319.043C926.737 318.981 926.938 318.326 927.197 317.477C927.321 318.464 927.696 319.065 928.769 319.039C929.779 319.014 930.064 318.442 930.093 317.093C930.632 318.289 930.883 319.192 932.067 319.029C932.994 318.902 933.282 318.326 933.461 317.44C933.682 318.427 934.004 319.053 935.049 319.035C936.072 319.019 936.498 318.475 936.678 317.44C936.974 318.439 937.334 319.171 938.515 319.035C939.468 318.925 939.612 318.322 939.754 317.486C939.766 317.739 939.835 317.986 939.955 318.208C940.075 318.431 940.244 318.624 940.449 318.772C940.653 318.921 940.888 319.022 941.137 319.068C941.386 319.114 941.642 319.104 941.886 319.038C942.693 318.931 942.864 319.4 942.92 320.108C943.169 323.212 943.187 323.211 940.055 323.211C931.065 323.211 922.075 323.206 913.083 323.197C912.367 323.197 911.358 323.577 911.003 322.761C910.639 321.676 910.612 320.506 910.927 319.405C911.05 318.805 911.751 319.046 912.206 319.048C913.237 319.055 914.083 318.874 914.152 317.388C914.215 318.947 915.131 319.092 916.227 319.035C917.173 318.984 917.622 318.531 917.569 317.462C917.862 318.389 918.2 319.041 919.266 319.047L919.272 319.045ZM917.291 306.558C917.291 306.636 917.292 306.713 917.295 306.791H899.222L899.212 306.558H917.291ZM915.566 310.766C915.566 310.839 915.566 310.911 915.571 310.984H897.574L897.57 310.766H915.566ZM910.269 315.06C905.507 315.711 900.721 315.42 895.942 315.474C895.938 315.336 895.934 315.198 895.93 315.06H910.269ZM887.063 277.47C887.394 277.284 887.762 277.174 888.141 277.149C888.52 277.124 888.9 277.183 889.252 277.324C890.027 277.616 890.842 278.083 890.712 279.02C890.574 280.007 889.615 279.605 888.977 279.696C888.709 279.718 888.439 279.72 888.17 279.703C887.955 279.717 887.739 279.714 887.525 279.694C886.945 279.592 886.06 280.006 885.923 279.087C885.806 278.336 886.415 277.824 887.057 277.471L887.063 277.47ZM896.42 328.736C893.445 328.736 890.47 328.747 887.496 328.736C886.755 328.736 885.887 328.865 885.793 327.743C885.737 327.543 885.723 327.333 885.752 327.127C885.78 326.921 885.85 326.723 885.958 326.545C886.066 326.367 886.208 326.212 886.378 326.091C886.547 325.971 886.739 325.885 886.942 325.841C888.296 325.302 889.443 326.48 890.608 325.865C891.847 325.21 893.304 326.411 894.453 325.327C895.144 326.553 896.33 325.084 897.117 325.813C897.189 325.879 897.391 325.936 897.409 325.91C898.331 324.6 899.717 326.821 900.715 325.471C900.905 325.213 901.531 326.25 902.052 325.915C903.343 325.085 904.548 326.219 905.829 325.978C906.901 325.774 907.164 326.547 907.146 327.508C907.125 328.548 906.547 328.752 905.668 328.746C902.579 328.726 899.496 328.737 896.418 328.737L896.42 328.736ZM906.975 336.748C906.974 336.831 906.956 336.912 906.92 336.987C906.885 337.061 906.833 337.127 906.77 337.179C906.706 337.232 906.632 337.27 906.552 337.291C906.472 337.312 906.389 337.316 906.308 337.301C906.004 337.235 905.928 336.916 905.928 336.649C905.91 335.73 905.921 334.81 905.921 333.891H905.913C905.913 332.92 905.896 331.949 905.921 330.979C905.93 330.643 906.082 330.329 906.492 330.319C906.903 330.308 907.076 330.597 907.111 330.938C907.251 332.875 907.203 334.821 906.966 336.749L906.975 336.748ZM948.034 320.909C948.142 325.406 948.07 329.908 948.055 334.408C948.055 334.966 948.224 335.591 947.64 336.154C947.117 335.512 946.864 334.691 946.934 333.866C946.934 332.402 946.909 330.938 946.93 329.474C946.949 328.176 946.057 328.147 945.155 328.184C944.233 328.218 943.029 327.892 942.958 329.398C942.891 330.859 942.94 332.325 942.923 333.788C942.943 334.217 942.903 334.647 942.803 335.065C942.651 335.551 942.581 336.194 941.845 336.204C941.071 336.217 941.05 335.561 940.934 335.065C940.683 333.458 940.634 331.825 940.787 330.206C940.815 328.809 940.478 328.107 938.896 328.13C937.415 328.151 936.839 328.648 936.956 330.141C937.051 331.439 937.047 332.743 936.945 334.041C936.886 334.839 937.05 336.102 935.952 336.127C934.803 336.152 934.976 334.884 934.927 334.086C934.835 332.679 934.831 331.268 934.916 329.86C935.008 328.4 934.245 328.133 933.027 328.154C931.847 328.174 930.82 328.211 930.888 329.824C930.944 331.123 930.915 332.427 930.896 333.727C930.905 334.21 930.851 334.692 930.738 335.161C930.615 335.597 930.537 336.209 929.86 336.134C929.301 336.071 929.284 335.527 929.201 335.129C928.962 333.52 928.918 331.889 929.069 330.269C929.12 328.777 928.7 328.119 927.075 328.128C925.487 328.137 924.943 328.741 925.034 330.254C925.125 331.715 925.133 333.18 925.058 334.642C925.027 335.236 924.936 336.105 924.101 336.125C923.294 336.143 923.303 335.256 923.266 334.754C923.147 333.079 923.114 331.398 923.168 329.72C923.218 328.149 922.227 328.174 921.13 328.159C919.991 328.143 919.08 328.235 919.125 329.761C919.172 331.491 919.106 333.227 919.002 334.956C918.974 335.432 918.92 336.171 918.153 336.119C917.521 336.077 917.486 335.409 917.446 334.98C917.329 333.744 917.3 332.497 917.294 331.254C917.275 328.191 917.277 328.175 915.331 328.171C913.306 328.165 913.288 328.19 913.291 331.333C913.291 332.255 913.285 333.177 913.323 334.098C913.367 334.584 913.291 335.074 913.103 335.524C912.962 335.828 912.813 336.135 912.438 336.158C911.95 336.188 911.838 335.812 911.714 335.434C911.279 334.108 911.491 332.743 911.477 331.396C911.444 328.334 911.467 328.334 908.545 327.96C909.041 327.938 909.536 327.899 910.032 327.898C910.898 327.898 911.537 327.69 911.453 326.618C911.396 325.895 911.561 325.287 912.487 325.347C913.316 325.403 913.398 325.994 913.339 326.633C913.183 328.215 914.365 327.901 915.201 327.874C916.049 327.846 917.362 328.352 917.23 326.634C917.173 325.898 917.326 325.317 918.241 325.337C919.156 325.357 919.267 325.976 919.198 326.688C919.074 327.979 919.999 327.961 920.804 327.875C921.691 327.782 923.053 328.466 923.14 326.728C923.174 326.057 923.119 325.354 924.078 325.348C925.104 325.341 925.159 326.032 925.087 326.805C925.011 327.597 925.467 327.868 926.168 327.884C926.601 327.895 927.035 327.891 927.469 327.9C928.492 327.92 929.367 327.856 928.994 326.392C928.847 325.811 929.168 325.348 929.89 325.329C930.025 325.307 930.163 325.316 930.294 325.354C930.425 325.392 930.546 325.459 930.649 325.549C930.751 325.64 930.833 325.752 930.887 325.877C930.941 326.003 930.966 326.139 930.962 326.275C931.013 326.833 930.688 327.603 931.505 327.782C932.508 328.044 933.564 328.021 934.554 327.715C935.124 327.513 934.918 326.89 934.898 326.414C934.873 325.795 935.041 325.351 935.779 325.333C936.454 325.318 936.884 325.675 936.831 326.29C936.684 327.995 937.789 327.902 938.926 327.907C940.037 327.912 941.038 327.918 940.901 326.332C940.847 325.724 941.232 325.344 941.915 325.326C942.065 325.3 942.22 325.312 942.364 325.36C942.509 325.409 942.639 325.493 942.743 325.604C942.847 325.716 942.922 325.851 942.96 325.999C942.999 326.146 943 326.301 942.964 326.449C942.757 328.064 943.85 327.901 944.826 327.892C945.824 327.881 946.442 327.892 947.017 326.502C948.308 323.388 947.658 320.275 947.89 317.17C947.997 315.741 947.334 315.4 946.067 315.423C943.52 315.475 940.97 315.451 938.422 315.423C937.808 315.417 937.112 315.619 936.55 314.918C938.13 313.866 939.613 313.224 941.482 314.356C943.352 315.487 945.139 314.827 946.646 313.664C948.891 315.778 947.966 318.454 948.025 320.909L948.034 320.909ZM927.441 303.445C927.008 303.445 926.574 303.449 926.142 303.424C925.827 303.405 925.386 303.413 925.371 303.012C925.351 302.469 925.865 302.557 926.216 302.521C926.54 302.499 926.865 302.493 927.189 302.503C935.413 302.503 943.637 302.505 951.861 302.508C952.643 302.508 953.505 302.328 954.291 303.443H949.841L927.441 303.445ZM954.251 316.341H954.247L954.241 316.344H954.246L954.251 316.341ZM954.051 316.49H954.047H954.051ZM953.93 316.584H953.926H953.93ZM956.124 336.992C955.261 336.94 954.392 336.975 953.527 336.986C951.126 337.02 951.124 337.023 951.124 334.539C951.124 329.667 951.132 324.795 951.119 319.923C951.119 318.936 951.245 318.069 952.379 317.766C952.027 318.099 951.754 318.508 951.58 318.961C951.406 319.413 951.335 319.899 951.373 320.383C951.409 325.196 951.421 330.01 951.373 334.824C951.358 336.19 951.772 336.774 953.227 336.733C958.226 336.592 957.549 337.448 957.587 332.491C957.622 327.894 957.574 323.297 957.608 318.7C957.669 318.164 957.609 317.621 957.434 317.11C957.258 316.6 956.971 316.136 956.593 315.751C956.56 315.744 956.528 315.741 956.496 315.735C956.528 315.741 956.56 315.743 956.593 315.75C957.006 315.888 957.358 316.165 957.588 316.535C957.818 316.904 957.912 317.342 957.854 317.773C957.828 323.62 957.815 329.467 957.862 335.313C957.856 336.61 957.339 337.067 956.111 336.993L956.124 336.992ZM933.055 290.75C932.568 290.75 932.078 290.775 931.594 290.733C931.2 290.699 930.553 290.846 930.59 290.24C930.624 289.685 931.256 289.839 931.663 289.801C931.985 289.772 932.312 289.791 932.637 289.791C949.698 289.791 966.76 289.797 983.824 289.809C984.522 289.809 985.828 289.472 985.799 290.224C985.759 291.168 984.479 290.726 983.757 290.729C975.252 290.763 966.747 290.751 958.242 290.751L933.055 290.75ZM965.375 335.051C965.4 336.57 964.844 337.102 963.386 336.994C962.303 336.929 961.218 336.926 960.135 336.984C959.01 337.027 958.617 336.518 958.621 335.42C958.649 329.515 958.651 323.609 958.627 317.703C958.627 316.796 958.859 316.102 959.812 315.831C959.476 316.18 959.218 316.597 959.055 317.053C958.892 317.51 958.828 317.996 958.867 318.479C958.898 323.89 958.925 329.301 958.854 334.711C958.833 336.282 959.385 336.783 960.928 336.735C965.643 336.59 965.04 337.384 965.076 332.594C965.102 329.185 964.967 325.77 965.121 322.369C965.225 320.069 964.983 318.084 962.806 316.814C964.649 317.482 965.456 318.668 965.393 320.749C965.236 325.518 965.284 330.29 965.361 335.056L965.375 335.051ZM999.172 329.834C999.207 331.405 999.248 332.98 999.172 334.548C999.144 335.147 999.053 336.067 998.31 336.105C997.381 336.154 997.349 335.165 997.323 334.525C997.247 332.903 997.276 331.274 997.327 329.649C997.378 328.036 996.273 328.18 995.227 328.165C994.181 328.151 993.234 328.195 993.303 329.661C993.359 330.851 993.317 332.046 993.307 333.238C993.347 333.724 993.319 334.213 993.224 334.692C993.054 335.259 993.183 336.206 992.291 336.181C991.296 336.152 991.447 335.134 991.406 334.54C991.322 333.08 991.329 331.615 991.429 330.155C991.511 328.699 990.954 328.141 989.454 328.128C987.907 328.114 987.323 328.627 987.392 330.199C987.546 331.817 987.507 333.449 987.276 335.058C987.19 335.497 987.19 336.14 986.512 336.136C985.871 336.132 985.728 335.498 985.701 335.073C985.58 333.402 985.543 331.727 985.59 330.053C985.65 328.49 984.896 328.146 983.508 328.13C982.049 328.113 981.424 328.586 981.543 330.105C981.636 331.457 981.632 332.814 981.532 334.166C981.485 334.919 981.599 336.102 980.584 336.122C979.42 336.146 979.584 334.892 979.521 334.111C979.418 332.76 979.412 331.402 979.504 330.05C979.597 328.643 979.072 328.131 977.648 328.129C976.18 328.129 975.577 328.614 975.681 330.12C975.786 331.526 975.775 332.938 975.649 334.342C975.582 335.041 975.725 336.264 974.542 336.137C973.582 336.035 973.554 334.986 973.534 334.182C973.503 332.936 973.549 331.689 973.544 330.442C973.535 328.337 973.341 328.235 971.39 328.136C969.644 328.048 969.492 328.985 969.507 330.36C969.527 331.977 969.739 333.613 969.336 335.214C969.256 335.533 969.296 336.095 968.729 335.973C968.349 335.889 968.414 335.446 968.413 335.138C968.398 328.742 968.409 322.345 968.363 315.95C968.356 314.899 969.891 314.811 969.344 313.302C971.577 315.048 973.453 315.314 975.501 314.109C977.126 313.153 978.486 314.058 979.937 314.901C979.389 315.574 978.708 315.421 978.106 315.426C975.504 315.448 972.901 315.467 970.3 315.426C969.092 315.407 968.518 315.77 968.568 317.104C968.651 319.376 968.539 321.656 968.589 323.931C968.616 325.205 969.481 326.251 969.846 327.453C970.119 328.356 971.691 327.868 972.689 327.842C973.516 327.821 973.525 327.182 973.494 326.536C973.462 325.89 973.649 325.35 974.464 325.332C975.337 325.313 975.617 325.827 975.58 326.578C975.504 328.2 976.696 327.877 977.609 327.884C978.54 327.893 979.702 328.162 979.603 326.543C979.556 325.789 979.888 325.278 980.753 325.341C981.652 325.407 981.57 326.043 981.498 326.653C981.383 327.619 981.923 327.926 982.757 327.885C984.034 327.824 985.784 328.504 985.567 326.054C985.515 325.469 986.091 325.307 986.635 325.341C987.18 325.374 987.395 325.691 987.387 326.201C987.382 326.821 987.077 327.636 988.004 327.795C989.007 328.057 990.064 328.014 991.042 327.672C991.518 327.464 991.364 326.931 991.352 326.502C991.333 325.814 991.571 325.34 992.363 325.339C992.499 325.32 992.639 325.335 992.769 325.382C992.899 325.429 993.015 325.507 993.108 325.61C993.201 325.712 993.268 325.835 993.303 325.969C993.338 326.102 993.34 326.243 993.309 326.377C993.139 328.186 994.427 327.859 995.468 327.896C996.51 327.932 997.498 327.947 997.256 326.389C997.224 326.255 997.225 326.114 997.259 325.98C997.293 325.845 997.358 325.721 997.45 325.617C997.542 325.514 997.657 325.434 997.786 325.384C997.915 325.334 998.055 325.316 998.192 325.331C998.98 325.305 999.34 325.756 999.239 326.435C999.081 327.489 999.435 328.01 1000.66 328.024C999.29 328.079 999.136 328.866 999.161 329.839L999.172 329.834ZM1001.04 320.208C1000.94 320.739 1000.83 321.271 1000.77 321.808C1000.78 322.012 1000.74 322.214 1000.66 322.4C1000.58 322.587 1000.45 322.753 1000.3 322.887C1000.15 323.021 999.968 323.119 999.772 323.175C999.577 323.232 999.371 323.244 999.17 323.212C991.099 323.192 983.027 323.192 974.956 323.212C973.885 323.212 973.509 322.756 973.543 321.741C973.589 320.355 973.059 318.651 975.54 318.951C976.4 319.055 976.359 318.116 976.742 317.199C976.786 318.475 977.179 319.082 978.257 319.029C979.225 318.98 979.639 318.511 979.608 317.423C980.064 318.339 980.39 319.155 981.56 319.037C982.529 318.94 982.809 318.372 982.92 317.429C983.224 318.426 983.561 319.074 984.694 318.997C985.705 318.929 985.939 318.328 986.149 317.436C986.444 318.415 986.782 319.171 987.965 319.03C988.921 318.916 989.176 318.338 989.242 317.423C989.459 318.41 989.796 319.04 990.849 319.032C991.867 319.025 992.28 318.486 992.357 317.405C992.643 318.477 993.07 319.103 994.158 319.016C995.088 318.94 995.525 318.465 995.567 317.41C995.901 318.368 996.175 319.117 997.307 319.037C998.328 318.965 998.656 318.363 998.798 317.422C999.021 318.263 999.106 319.033 1000.19 318.988C1000.98 318.959 1001.15 319.515 1001.02 320.212L1001.04 320.208ZM1004.7 335.308C1004.6 335.682 1004.51 336.092 1004.04 336.111C1003.55 336.129 1003.44 335.689 1003.35 335.334C1002.9 333.627 1003.3 331.887 1003.18 330.166C1003.12 329.396 1003.41 328.518 1002.18 327.988C1003.15 327.885 1003.42 328.215 1003.65 328.6C1004.28 329.586 1004.7 330.692 1004.88 331.847C1005.05 333.003 1004.99 334.183 1004.69 335.313L1004.7 335.308ZM1002.5 307.858C1002.45 307.059 1002.48 305.959 1003.48 305.926C1005.03 305.877 1004.63 307.275 1004.78 308.165C1004.76 308.593 1004.77 308.973 1004.72 309.346C1004.61 310.224 1003.96 310.385 1003.29 310.189C1002 309.817 1002.54 308.69 1002.49 307.862L1002.5 307.858ZM1005.88 300.58C1004.58 301.214 1003.01 300.884 1001.56 300.732C1000.96 300.668 1000.89 300.085 1000.89 299.584C1000.88 297.526 1000.84 295.465 1000.91 293.409C1000.89 293.053 1000.95 292.698 1001.08 292.366C1001.21 292.035 1001.41 291.735 1001.66 291.488C1001.92 291.24 1002.23 291.051 1002.56 290.932C1002.9 290.813 1003.25 290.767 1003.61 290.798C1003.98 290.764 1004.34 290.81 1004.69 290.932C1005.04 291.055 1005.35 291.251 1005.62 291.508C1005.88 291.765 1006.08 292.076 1006.22 292.42C1006.35 292.763 1006.4 293.131 1006.38 293.498C1006.42 294.472 1006.38 295.448 1006.38 296.424H1006.4C1006.42 296.857 1006.42 297.291 1006.39 297.723C1006.26 298.709 1006.89 300.085 1005.86 300.585L1005.88 300.58ZM1012.83 302.099C1011.5 302.362 1010.65 301.441 1011.11 299.897C1011.98 296.968 1011.3 293.962 1011.85 290.909C1011.65 289.77 1011.44 288.509 1011.2 287.257C1011.09 286.725 1010.83 286.128 1011.4 285.787C1012.01 285.427 1012.67 285.771 1013.28 285.978C1013.39 286.018 1013.5 286.082 1013.59 286.166C1013.68 286.25 1013.76 286.352 1013.81 286.465C1013.86 286.579 1013.88 286.702 1013.88 286.826C1013.88 286.95 1013.86 287.073 1013.81 287.186C1012.89 290.371 1013.49 293.594 1013.52 296.802C1013.52 297.772 1013.63 298.739 1013.86 299.682C1014.08 300.631 1014.27 301.817 1012.81 302.106L1012.83 302.099ZM1014.18 284.65C1012.48 282.754 1010.8 280.843 1009.14 278.917C1008.82 278.549 1008.58 278.121 1008.43 277.659C1007.15 273.577 1005.9 269.486 1004.66 265.394C1004.62 265.186 1004.62 264.974 1004.65 264.765C1005.31 264.857 1005.27 265.372 1005.39 265.752C1006.43 269 1007.55 272.229 1008.47 275.51C1009.04 277.548 1010.12 279.403 1011.62 280.895C1012.92 282.223 1014.12 283.664 1015.42 285.124C1014.63 285.434 1014.42 284.942 1014.16 284.657L1014.18 284.65ZM1021.25 302.962C1018.46 302.983 1017.46 302.341 1017.43 300.664C1017.41 299.257 1017.43 297.848 1017.43 295.905C1017.31 293.381 1017.48 290.852 1017.95 288.369C1018.1 287.715 1018.16 286.783 1019.15 286.962C1020.18 287.147 1021.64 286.72 1021.98 288.253C1022.9 292.315 1022.91 296.53 1022.02 300.599C1021.97 300.808 1021.9 301.012 1021.81 301.206C1021.52 301.779 1022.98 302.955 1021.24 302.968L1021.25 302.962ZM1064.71 325.729C1064.64 326.125 1064.57 326.521 1064.49 326.916C1064.1 327.029 1063.7 327.138 1063.31 327.256C1061.27 327.903 1059.4 328.992 1057.83 330.445C1057.34 330.258 1056.83 330.126 1056.31 330.052C1054.79 329.824 1054.38 329.209 1054.78 327.774C1055.13 326.483 1055.33 325.155 1055.64 323.611C1056.41 324.577 1056.94 324.891 1057.02 323.477C1057.05 322.597 1057.41 321.759 1058.02 321.129C1058.57 320.584 1059.05 319.486 1059.88 319.872C1060.65 320.234 1060.59 321.376 1060.55 322.238C1060.45 324.228 1061.3 324.943 1063.2 324.397C1064.66 323.975 1064.98 324.256 1064.71 325.729ZM1064.15 319.849C1064.21 319.898 1064.26 319.963 1064.3 320.038C1064.33 320.113 1064.35 320.195 1064.35 320.277C1064.34 320.359 1064.32 320.439 1064.28 320.51C1064.23 320.581 1064.18 320.641 1064.11 320.684C1063.54 321.183 1062.84 321.501 1062.09 321.595C1061.62 321.591 1061.69 321.032 1061.7 320.674C1061.7 319.871 1061.76 319.069 1061.87 318.274C1062.08 317.029 1062.86 316.481 1064.36 316.691C1063.24 317.771 1063.14 318.8 1064.15 319.848V319.849ZM1066.17 313.47C1065.9 313.827 1064.95 314.154 1066.04 314.781C1066.49 315.042 1065.88 315.312 1065.67 315.378C1065.1 315.52 1064.52 315.63 1063.94 315.709C1063.57 315.801 1063.19 315.795 1062.82 315.692C1062.46 315.588 1062.13 315.391 1061.86 315.119C1061.2 314.425 1060.22 314.353 1059.36 314.047C1059.15 313.993 1058.96 313.871 1058.83 313.699C1058.69 313.527 1058.62 313.316 1058.61 313.097C1058.61 312.931 1058.68 312.771 1058.79 312.649C1058.9 312.526 1059.06 312.451 1059.22 312.438C1061.71 312.219 1063.7 310.347 1066.23 310.297C1066.73 310.286 1067.37 309.858 1067.69 310.509C1067.8 310.791 1067.82 311.096 1067.77 311.392C1067.72 311.688 1067.58 311.964 1067.39 312.192C1067.06 312.674 1066.52 313.006 1066.17 313.472V313.47ZM1067.32 326.151C1067.37 326.061 1067.42 325.97 1067.46 325.877C1067.63 325.498 1068.05 324.89 1068.55 325.081C1068.68 325.139 1068.79 325.231 1068.87 325.346C1068.95 325.462 1069 325.597 1069.01 325.738C1068.45 325.874 1067.88 326.013 1067.32 326.155V326.151Z" fill="#D6E99C"/>
</g>
<defs>
<clipPath id="clip0_46_135">
<rect width="1458" height="350" fill="white"/>
</clipPath>
</defs>
</svg>
